<?xml version="1.0" encoding="UTF-8" standalone="no"?>
<svg
   xmlns:dc="http://purl.org/dc/elements/1.1/"
   xmlns:cc="http://creativecommons.org/ns#"
   xmlns:rdf="http://www.w3.org/1999/02/22-rdf-syntax-ns#"
   xmlns:svg="http://www.w3.org/2000/svg"
   xmlns="http://www.w3.org/2000/svg"
   xmlns:sodipodi="http://sodipodi.sourceforge.net/DTD/sodipodi-0.dtd"
   xmlns:inkscape="http://www.inkscape.org/namespaces/inkscape"
   width="1000"
   height="500"
   viewBox="0 0 264.58333 132.29166"
   version="1.1"
   id="svg948"
   sodipodi:docname="locations_3.svg"
   inkscape:version="1.0.1 (0767f8302a, 2020-10-17)">
  <defs
     id="defs942">
    <rect
       x="149.9957"
       y="55.334454"
       width="130.34801"
       height="14.99334"
       id="rect1583" />
  </defs>
  <sodipodi:namedview
     id="base"
     pagecolor="#845e5e"
     bordercolor="#666666"
     borderopacity="1.0"
     inkscape:pageopacity="0"
     inkscape:pageshadow="2"
     inkscape:zoom="0.70710678"
     inkscape:cx="516.35564"
     inkscape:cy="226.97331"
     inkscape:document-units="mm"
     inkscape:current-layer="layer1"
     inkscape:document-rotation="0"
     showgrid="false"
     units="px"
     inkscape:window-width="1848"
     inkscape:window-height="1016"
     inkscape:window-x="72"
     inkscape:window-y="27"
     inkscape:window-maximized="1" />
  <metadata
     id="metadata945">
    <rdf:RDF>
      <cc:Work
         rdf:about="">
        <dc:format>image/svg+xml</dc:format>
        <dc:type
           rdf:resource="http://purl.org/dc/dcmitype/StillImage" />
        <dc:title></dc:title>
      </cc:Work>
    </rdf:RDF>
  </metadata>
  <g
     inkscape:label="Layer 1"
     inkscape:groupmode="layer"
     id="layer1">
    <text
       xml:space="preserve"
       style="font-style:normal;font-weight:normal;font-size:10.5833px;line-height:1.25;font-family:sans-serif;fill:#ffffff;fill-opacity:1;stroke:none;stroke-width:0.264583;"
       x="2.8668261"
       y="10.451149"
       id="text1573"><tspan
         sodipodi:role="line"
         id="tspan1571"
         x="2.8668261"
         y="10.451149"
         style="stroke-width:0.264583;fill:#ffffff;fill-opacity:1;">Location 1</tspan><tspan
         sodipodi:role="line"
         x="2.8668261"
         y="23.680275"
         style="stroke-width:0.264583;fill:#ffffff;fill-opacity:1;"
         id="tspan1575">Mall parking lot</tspan></text>
    <text
       xml:space="preserve"
       style="font-style:normal;font-weight:normal;font-size:10.5833px;line-height:1.25;font-family:sans-serif;fill:#000000;fill-opacity:1;stroke:none;stroke-width:0.264583"
       x="134.827"
       y="39.800991"
       id="text1579"><tspan
         sodipodi:role="line"
         id="tspan1577"
         x="134.827"
         y="39.800991"
         style="stroke-width:0.264583">    </tspan></text>
    <text
       xml:space="preserve"
       id="text1581"
       style="font-style:normal;font-weight:normal;font-size:10.5833px;line-height:1.25;font-family:sans-serif;white-space:pre;shape-inside:url(#rect1583);fill:#000000;fill-opacity:1;stroke:none;"
       transform="translate(-50.500288,11.946842)"><tspan
         x="149.99609"
         y="64.697724"><tspan
           style="fill:#ffffff;fill-opacity:1">Sort lots</tspan></tspan></text>
    <text
       xml:space="preserve"
       style="font-style:normal;font-weight:normal;font-size:10.5833px;line-height:1.25;font-family:sans-serif;fill:#000000;fill-opacity:1;stroke:none;stroke-width:0.264583"
       x="201.4715"
       y="115.22842"
       id="text1589"><tspan
         sodipodi:role="line"
         id="tspan1587"
         x="201.4715"
         y="115.22842"
         style="fill:#ffffff;fill-opacity:1;stroke-width:0.264583">Location 2</tspan><tspan
         sodipodi:role="line"
         x="201.4715"
         y="128.45753"
         style="fill:#ffffff;fill-opacity:1;stroke-width:0.264583"
         id="tspan1591">Public park</tspan></text>
    <path
       style="fill:#ffffff;fill-opacity:1;stroke:#ffffff;stroke-width:0;stroke-miterlimit:4;stroke-dasharray:none;stroke-opacity:1"
       d="m 151.4086,73.219794 2.11367,-0.0199 v -2.347731 c 0,-1.29125 -0.024,-2.33424 -0.0533,-2.31776 -0.0293,0.0165 -1.68384,1.02127 -3.67674,2.23287 -1.9929,1.21159 -3.73536,2.27093 -3.87212,2.35408 l -0.24867,0.15117 1.81173,-0.0164 c 0.99645,-0.009 2.76288,-0.0254 3.92541,-0.0363 z"
       id="path1660-7-9" />
    <path
       style="fill:#ffffff;fill-opacity:1;stroke:#ffffff;stroke-width:0;stroke-miterlimit:4;stroke-dasharray:none;stroke-opacity:1"
       d="m 151.40858,73.219824 2.11368,0.0199 v 2.34773 c 0,1.29125 -0.024,2.33424 -0.0533,2.31776 -0.0293,-0.0165 -1.68383,-1.02127 -3.67673,-2.23286 -1.9929,-1.2116 -3.73536,-2.27094 -3.87213,-2.35408 l -0.24867,-0.15118 1.81173,0.0164 c 0.99645,0.009 2.76289,0.0253 3.9254,0.0363 z"
       id="path1660-1-0-3" />
    <path
       style="fill:#ffffff;fill-opacity:1;stroke:#ffffff;stroke-width:0;stroke-miterlimit:4;stroke-dasharray:none;stroke-opacity:1"
       d="m 91.056034,73.1761 -2.11367,-0.0199 v -2.347732 c 0,-1.29125 0.024,-2.33424 0.0533,-2.31776 0.0293,0.0165 1.68384,1.02127 3.67674,2.23287 1.9929,1.21159 3.73536,2.27093 3.87212,2.35408 l 0.24867,0.15117 -1.81173,-0.0164 c -0.99645,-0.009 -2.76288,-0.0254 -3.92541,-0.0363 z"
       id="path1660-7-9-6" />
    <path
       style="fill:#ffffff;fill-opacity:1;stroke:#ffffff;stroke-width:0;stroke-miterlimit:4;stroke-dasharray:none;stroke-opacity:1"
       d="m 91.056054,73.17613 -2.11368,0.0199 v 2.34773 c 0,1.29125 0.024,2.33424 0.0533,2.31776 0.0293,-0.0165 1.68383,-1.021269 3.67673,-2.232859 1.9929,-1.2116 3.73536,-2.27094 3.87213,-2.35408 l 0.24867,-0.15118 -1.81173,0.0164 c -0.99645,0.009 -2.76289,0.0253 -3.9254,0.0363 z"
       id="path1660-1-0-3-0" />
    <path
       style="fill:#ffffff;fill-opacity:1;stroke:#ffffff;stroke-width:0;stroke-miterlimit:4;stroke-dasharray:none;stroke-opacity:1"
       d="m 43.192852,33.802785 0.0199,2.11367 h 2.347732 c 1.29125,0 2.33424,-0.024 2.31776,-0.0533 -0.0165,-0.0293 -1.02127,-1.68384 -2.23287,-3.67674 -1.21159,-1.9929 -2.27093,-3.73536 -2.35408,-3.87212 l -0.15117,-0.24867 0.0164,1.81173 c 0.009,0.99645 0.0254,2.76288 0.0363,3.92541 z"
       id="path1660-7-9-62" />
    <path
       style="fill:#ffffff;fill-opacity:1;stroke:#ffffff;stroke-width:0;stroke-miterlimit:4;stroke-dasharray:none;stroke-opacity:1"
       d="m 43.192824,33.802765 -0.0199,2.11368 h -2.34773 c -1.29125,0 -2.33424,-0.024 -2.31776,-0.0533 0.0165,-0.0293 1.021269,-1.68383 2.232859,-3.67673 1.2116,-1.9929 2.27094,-3.73536 2.35408,-3.87213 l 0.15118,-0.24867 -0.0164,1.81173 c -0.009,0.99645 -0.0253,2.76289 -0.0363,3.9254 z"
       id="path1660-1-0-3-6" />
    <path
       style="fill:#ffffff;fill-opacity:1;stroke:#ffffff;stroke-width:0;stroke-miterlimit:4;stroke-dasharray:none;stroke-opacity:1"
       d="m 226.4376,96.29043 0.0199,-2.113671 h 2.34773 c 1.29125,0 2.33424,0.024 2.31776,0.0533 -0.0165,0.0293 -1.02127,1.68384 -2.23287,3.676741 -1.21159,1.9929 -2.27093,3.73536 -2.35408,3.87212 l -0.15117,0.24867 0.0164,-1.81173 c 0.009,-0.99645 0.0254,-2.76288 0.0363,-3.92541 z"
       id="path1660-7-9-62-1" />
    <path
       style="fill:#ffffff;fill-opacity:1;stroke:#ffffff;stroke-width:0;stroke-miterlimit:4;stroke-dasharray:none;stroke-opacity:1"
       d="m 226.43757,96.29045 -0.0199,-2.113681 h -2.34773 c -1.29125,0 -2.33424,0.024 -2.31776,0.0533 0.0165,0.0293 1.02127,1.68383 2.23286,3.676731 1.2116,1.9929 2.27094,3.73536 2.35408,3.87213 l 0.15118,0.24867 -0.0164,-1.81173 c -0.009,-0.99645 -0.0253,-2.76289 -0.0363,-3.9254 z"
       id="path1660-1-0-3-6-8" />
    <text
       xml:space="preserve"
       style="font-style:normal;font-weight:normal;font-size:10.5833px;line-height:1.25;font-family:sans-serif;fill:#000000;fill-opacity:1;stroke:none;stroke-width:0.264583"
       x="56.207264"
       y="122.02252"
       id="text1621-6-7"><tspan
         sodipodi:role="line"
         x="56.207264"
         y="122.02252"
         style="fill:#ffffff;fill-opacity:1;stroke-width:0.264583"
         id="tspan1623-9-2">Buyers pick up lots</tspan></text>
    <text
       xml:space="preserve"
       style="font-style:normal;font-weight:normal;font-size:10.5833px;line-height:1.25;font-family:sans-serif;fill:#000000;fill-opacity:1;stroke:none;stroke-width:0.264583"
       x="123.02883"
       y="17.330215"
       id="text1621-6-7-0"><tspan
         sodipodi:role="line"
         x="123.02883"
         y="17.330215"
         style="fill:#ffffff;fill-opacity:1;stroke-width:0.264583"
         id="tspan1623-9-2-2">Buyers pick up lots</tspan></text>
    <path
       style="fill:#ffffff;stroke:#ffffff;stroke-width:2;stroke-linecap:butt;stroke-linejoin:miter;stroke-miterlimit:4;stroke-dasharray:none;stroke-opacity:1;fill-opacity:1"
       d="m 88.095,13.898038 27.75885,0.31215"
       id="path1646-3" />
    <path
       style="fill:#ffffff;fill-opacity:1;stroke:#ffffff;stroke-width:0;stroke-miterlimit:4;stroke-dasharray:none;stroke-opacity:1"
       d="m 115.85383,14.104758 -2.11368,-0.0199 v -2.34773 c 0,-1.29125 0.024,-2.33424 0.0533,-2.31776 0.0293,0.0165 1.68385,1.02127 3.67675,2.23287 1.9929,1.21159 3.73535,2.27093 3.87212,2.35408 l 0.24867,0.15117 -1.81173,-0.0164 c -0.99645,-0.009 -2.76288,-0.0254 -3.92541,-0.0363 z"
       id="path1660-75" />
    <path
       style="fill:#ffffff;fill-opacity:1;stroke:#ffffff;stroke-width:0;stroke-miterlimit:4;stroke-dasharray:none;stroke-opacity:1"
       d="m 115.85385,14.104788 -2.11369,0.0199 v 2.34773 c 0,1.29125 0.024,2.33424 0.0533,2.31776 0.0293,-0.0165 1.68384,-1.02127 3.67674,-2.23286 1.9929,-1.2116 3.73536,-2.27094 3.87213,-2.35408 l 0.24867,-0.15118 -1.81173,0.0164 c -0.99645,0.009 -2.76289,0.0253 -3.92541,0.0363 z"
       id="path1660-1-9" />
    <path
       style="fill:#ffffff;stroke:#ffffff;stroke-width:2;stroke-linecap:butt;stroke-linejoin:miter;stroke-miterlimit:4;stroke-dasharray:none;stroke-opacity:1;fill-opacity:1"
       d="m 193.93493,119.30379 -27.75885,0.31215"
       id="path1646-22" />
    <path
       style="fill:#ffffff;fill-opacity:1;stroke:#ffffff;stroke-width:0;stroke-miterlimit:4;stroke-dasharray:none;stroke-opacity:1"
       d="m 166.1761,119.51051 2.11368,-0.0199 v -2.34773 c 0,-1.29125 -0.024,-2.33424 -0.0533,-2.31776 -0.0293,0.0165 -1.68385,1.02127 -3.67675,2.23287 -1.9929,1.21159 -3.73535,2.27093 -3.87212,2.35408 l -0.24867,0.15117 1.81173,-0.0164 c 0.99645,-0.009 2.76288,-0.0254 3.92541,-0.0363 z"
       id="path1660-8" />
    <path
       style="fill:#ffffff;fill-opacity:1;stroke:#ffffff;stroke-width:0;stroke-miterlimit:4;stroke-dasharray:none;stroke-opacity:1"
       d="m 166.17608,119.51054 2.11369,0.0199 v 2.34773 c 0,1.29125 -0.024,2.33424 -0.0533,2.31776 -0.0293,-0.0165 -1.68384,-1.02127 -3.67674,-2.23286 -1.9929,-1.2116 -3.73536,-2.27094 -3.87213,-2.35408 l -0.24866,-0.15118 1.81172,0.0164 c 0.99645,0.009 2.76289,0.0253 3.92541,0.0363 z"
       id="path1660-1-97" />
    <path
       style="fill:none;stroke:#ffffff;stroke-width:2;stroke-linecap:butt;stroke-linejoin:miter;stroke-miterlimit:4;stroke-dasharray:none;stroke-opacity:1"
       d="m 43.212752,35.916454 c 0.551852,45.45462 45.72962,37.279574 45.72962,37.279574 v 0"
       id="path1884" />
    <path
       style="fill:none;stroke:#ffffff;stroke-width:2;stroke-linecap:butt;stroke-linejoin:miter;stroke-miterlimit:4;stroke-dasharray:none;stroke-opacity:1"
       d="m 153.52226,73.239724 c 78.04146,-0.703895 72.93524,20.937035 72.93524,20.937035"
       id="path1888" />
  </g>
</svg>
