<?xml version="1.0" encoding="UTF-8" standalone="no"?>
<svg
   xmlns:dc="http://purl.org/dc/elements/1.1/"
   xmlns:cc="http://creativecommons.org/ns#"
   xmlns:rdf="http://www.w3.org/1999/02/22-rdf-syntax-ns#"
   xmlns:svg="http://www.w3.org/2000/svg"
   xmlns="http://www.w3.org/2000/svg"
   xmlns:sodipodi="http://sodipodi.sourceforge.net/DTD/sodipodi-0.dtd"
   xmlns:inkscape="http://www.inkscape.org/namespaces/inkscape"
   width="300"
   height="300"
   viewBox="0 0 79.375002 79.374998"
   version="1.1"
   id="svg8"
   inkscape:version="1.0.1 (0767f8302a, 2020-10-17)"
   sodipodi:docname="red_tail_cat.svg">
  <defs
     id="defs2" />
  <sodipodi:namedview
     id="base"
     pagecolor="#ffffff"
     bordercolor="#666666"
     borderopacity="1.0"
     inkscape:pageopacity="0.0"
     inkscape:pageshadow="2"
     inkscape:zoom="2.8"
     inkscape:cx="218.50115"
     inkscape:cy="180.54194"
     inkscape:document-units="mm"
     inkscape:current-layer="g885"
     inkscape:document-rotation="0"
     showgrid="false"
     inkscape:window-width="1848"
     inkscape:window-height="1016"
     inkscape:window-x="72"
     inkscape:window-y="27"
     inkscape:window-maximized="1"
     units="px" />
  <metadata
     id="metadata5">
    <rdf:RDF>
      <cc:Work
         rdf:about="">
        <dc:format>image/svg+xml</dc:format>
        <dc:type
           rdf:resource="http://purl.org/dc/dcmitype/StillImage" />
        <dc:title />
      </cc:Work>
    </rdf:RDF>
  </metadata>
  <g
     inkscape:label="Layer 1"
     inkscape:groupmode="layer"
     id="layer1">
    <g
       id="no_red_tailed_cats"
       style="fill:#ffffff;fill-opacity:1">
      <circle
         style="fill:#ffffff;stroke-width:2;fill-opacity:1;stroke:#ff0000;stroke-opacity:1;stroke-miterlimit:4;stroke-dasharray:none"
         id="circle"
         cx="40.43573"
         cy="37.800121"
         r="34.341244" />
      <path
         style="fill:#ffffff;stroke:#ff0000;stroke-width:2;stroke-linecap:butt;stroke-linejoin:miter;stroke-opacity:1;stroke-miterlimit:4;stroke-dasharray:none;fill-opacity:1"
         d="M 19.517969,64.822731 64.688418,13.620373"
         id="slash" />
    </g>
  </g>
  <g
     inkscape:groupmode="layer"
     id="layer2"
     inkscape:label="Layer 2">
    <g
       id="g885">
      <path
         style="fill:none;stroke:#000000;stroke-width:0.0395974px;stroke-linecap:butt;stroke-linejoin:miter;stroke-opacity:1"
         d="m 19.518301,36.106459 c -0.124815,0 -0.221159,0.06329 -0.274297,0.115299 -0.07456,0.07296 -0.320294,-0.02969 -0.393953,0.04388 -0.06171,0.06162 -0.261775,0.08257 -0.375197,0.139318 -0.03821,0.01914 -0.154169,-0.02909 -0.183265,0 -0.09643,0.09643 -0.554532,0.253912 -0.691016,0.3923 -0.269407,0.273164 -0.267969,0.6903 -0.395602,1.073129 -0.04564,0.136899 0.0084,0.260544 -0.05531,0.388767 -0.06005,0.120935 0.06037,0.331685 0,0.452431 -0.154044,0.308089 -0.05657,0.883835 -0.05657,1.244493 0,0.27092 -0.03489,1.874737 0.05439,1.964021 0.01333,0.01334 0.04324,-0.01334 0.05657,0 0.05284,0.05284 0.0603,0.229997 0.113135,0.28284 0.08485,0.08485 0.197987,0.141417 0.282839,0.226268 0.06483,0.06483 0.104877,0.218016 0.169704,0.28284 0.02981,0.02984 0.07805,0.03319 0.113136,0.05657 0.07782,0.05188 0.05705,0.08512 0.11143,0.167622 0.09085,0.137834 0.262803,0.215467 0.391987,0.280056 0.222965,0.111484 1.146792,-0.06479 1.470764,0 0.157275,0.03144 0.302317,0.07558 0.452543,0.113139 0.141924,0.03548 0.518823,-0.009 0.624038,0.113803 0.0564,0.06583 -0.07249,0.224264 -0.101162,0.28242 -0.242347,0.491516 -0.918876,0.697027 -1.40997,1.065347 -0.27225,0.204187 -0.444611,0.50435 -0.735382,0.678814 -0.42618,0.255711 -0.905791,0.328376 -1.357629,0.509113 -0.295953,0.118382 -0.690578,0.176763 -0.961653,0.339407 -0.04573,0.02744 -0.0674,0.0857 -0.113138,0.113134 -0.195321,0.117197 -0.13668,0.01604 -0.339407,0.05657 -0.213913,0.04278 -0.386438,0.177537 -0.678814,0.226268 -0.14813,0.02469 -0.256476,0.141807 -0.395974,0.169705 -0.200323,0.04008 -0.420129,0.02769 -0.622247,0.05657 -0.174229,0.02489 -0.334878,0.144812 -0.509108,0.169701 -0.07467,0.0107 -0.151608,-0.01065 -0.226272,0 -0.17382,0.02484 -0.336773,0.135235 -0.509113,0.169706 -0.328097,0.06562 -0.690435,-0.009 -1.018222,0.05657 -0.211588,0.04233 -1.481092,0.136255 -1.640467,0.05657 -0.4218136,-0.210904 -1.0955595,-0.495093 -1.3758804,-0.7852 -0.2978388,-0.308235 -0.1388635,-0.993906 0.011295,-1.301391 0.022241,-0.04558 -0.022691,-0.124354 0,-0.169691 0.058561,-0.117127 0.1118295,-0.223659 0.169701,-0.339407 0.030388,-0.06078 -0.021791,-0.160824 0,-0.226273 0.082441,-0.247324 0.164533,-0.431844 0.2262729,-0.678808 0.068832,-0.275333 0.5781598,-0.669258 0.7353805,-0.905087 0.148985,-0.223474 0.239428,-0.500561 0.395979,-0.735386 0.04438,-0.06656 0.121701,-0.105702 0.169701,-0.169701 0.106047,-0.141397 0.18466,-0.305271 0.28284,-0.452546 0.101529,-0.152298 0.29444,-0.243676 0.395974,-0.395974 0.326402,-0.4896 0.339407,-0.66229 0.339407,-1.244493 0,-0.131502 0.06401,-0.459283 0,-0.587766 -0.03354,-0.06737 -0.06486,-0.235967 -0.111585,-0.282683 -0.05803,-0.05803 -0.187924,-0.111235 -0.226268,-0.226268 -0.07571,-0.227118 -0.206521,-0.449852 -0.28284,-0.678814 -0.01689,-0.0506 -0.09627,-0.06254 -0.113139,-0.113139 -0.03279,-0.09832 -0.05241,-0.248319 -0.113134,-0.339407 -0.08501,-0.127508 -0.216162,-0.206056 -0.28284,-0.339407 -0.122585,-0.24517 -0.199124,-0.54081 -0.28284,-0.791947 -0.05243,-0.157306 -0.227747,-0.287279 -0.2828399,-0.452546 -0.075744,-0.227248 -0.1093855,-0.390914 -0.2251484,-0.62072 -0.028788,-0.0571 0.027989,-0.158427 0,-0.21573 -0.00765,-0.01561 -0.044432,0.01558 -0.052134,0 -0.044682,-0.09061 -0.040234,-0.136876 -0.1025883,-0.259257 -0.036985,-0.07264 0.036635,-0.201269 0,-0.274135 -0.034486,-0.06859 -0.057337,-0.101037 -0.089798,-0.13435 -4.998e-4,-6e-4 0.036835,-0.882045 0.042333,-0.887418 0.091783,-0.09008 0.4218283,-0.566564 0.4618766,-0.69202 0.02394,-0.07504 0.0862,-0.01155 0.120626,-0.0808 0.05506,-0.110774 0.08036,-0.196858 0.149495,-0.264772 0.03569,-0.03504 0.132256,-0.0067 0.167676,-0.0419 0.297245,-0.295335 1.602099,-0.10688 1.984013,0.08408 0.05059,0.02529 0.116038,-0.01789 0.169701,0 0.09931,0.0331 0.183531,0.136601 0.28284,0.169704 0.107072,0.03569 0.299113,0.0647 0.395974,0.113135 0.01684,0.0084 -0.01684,0.04814 0,0.05657 0.158985,0.07949 0.910794,0.125592 1.13136,0.169704 0.08269,0.01654 0.144461,0.09268 0.226268,0.113137 0.211978,0.05299 0.856486,0.09145 0.978437,0.205923 0.03768,0.03539 0.179187,-0.03641 0.215597,0 0.01334,0.01333 -0.01335,0.04323 0,0.05657 0.0098,0.0098 0.703015,0.21979 0.735383,0.226271 0.05547,0.01109 0.129704,-0.04 0.169704,0 0.01333,0.01333 -0.01334,0.04323 0,0.05657 0.02666,0.02666 0.0794,-0.01686 0.113135,0 0.02385,0.01193 0.03127,0.04814 0.05657,0.05657 0.1385,0.04617 0.317001,0.01139 0.452541,0.05657 0.08896,0.02965 0.192536,0.139602 0.282839,0.169703 0.09561,0.03187 0.266922,0.04065 0.339407,0.113136 0.01333,0.01333 -0.01333,0.04323 0,0.05657 0.04216,0.04217 0.122002,0.02079 0.169704,0.05657 0.272826,0.204619 0.507711,0.432755 0.79195,0.622248 0.108784,0.07252 0.174055,0.210317 0.282839,0.282839 0.19913,0.132754 0.418758,0.233127 0.61172,0.375878 z"
         id="path24" />
      <path
         style="fill:none;stroke:#000000;stroke-width:0.0395974px;stroke-linecap:butt;stroke-linejoin:miter;stroke-opacity:1"
         d="m 19.832581,35.74782 c 0.133667,0.08437 0.256861,0.188239 0.401001,0.253117 0.102089,0.04593 0.227116,0.01499 0.331062,0.05657 0.367953,0.147181 0.710374,0.352932 1.074789,0.509108 0.07146,0.03064 0.171298,0.0015 0.226272,0.05657 0.01334,0.01335 -0.01333,0.04323 0,0.05657 0.10278,0.102778 0.332046,0.129538 0.452543,0.169701 0.178594,0.05953 0.314704,0.190073 0.38812,0.267186 0.05191,0.05452 0.73406,0.216967 0.834991,0.237154 0.218227,0.04363 1.104437,-0.0076 1.235647,0.05657 0.06449,0.03154 0.973358,0.09352 1.030433,0.04938 0.04048,-0.03134 -0.102039,-0.215687 -0.10408,-0.218746 -0.140762,-0.211144 -0.34266,-0.291257 -0.446583,-0.39321 -0.01286,-0.01259 0,-0.126164 0,-0.146426 0,-0.187963 -0.04518,-0.439856 0,-0.620557 0.03336,-0.133416 0.136349,-0.262558 0.169704,-0.395975 0.221314,-0.885259 0.467569,-1.004285 1.357493,-1.300926 0.0506,-0.01686 0.06254,-0.09627 0.113136,-0.113137 0.33266,-0.110886 0.635961,-0.171661 1.018221,-0.226271 0.260299,-0.03718 0.619128,-0.205382 0.899423,-0.113135 0.08759,0.02883 0.182591,0.134049 0.280896,0.166817 0.263186,0.08773 0.494459,0.162378 0.735382,0.282839 0.03373,0.01686 0.08647,-0.02666 0.113136,0 0.01333,0.01333 0,0.03771 0,0.05657 0.01886,0.01886 0.03438,0.04178 0.05657,0.05657 0.174055,0.116036 0.391623,0.166802 0.565678,0.282837 0.120608,0.08041 0.217695,0.201699 0.339407,0.282841 0.07348,0.04899 0.293173,0.12347 0.339408,0.169704 0.03426,0.03426 0.165832,0.246053 0.220522,0.273382 0.217077,0.108475 0.538124,0.194615 0.758529,0.268083 0.312167,0.104058 0.842373,-0.05759 1.187924,0 0.464323,0.07738 0.936209,0.05657 1.414197,0.05657 0.218912,0 1.308702,0.01804 1.383654,-0.05163 0.14225,-0.132207 -0.608075,-0.412808 -0.657466,-0.437504 -0.03373,-0.01686 -0.08647,0.02666 -0.113136,0 -0.01333,-0.01333 0.01333,-0.04324 0,-0.05657 -0.02824,-0.02824 -0.188963,-0.01999 -0.226271,-0.05657 -0.137574,-0.134879 -0.165994,-0.383561 -0.2922,-0.636113 -0.0507,-0.101463 0,-0.411061 0,-0.509111 0,-0.151581 -0.137906,-0.402115 -0.05657,-0.565678 0.09044,-0.181858 0.192031,-0.384669 0.282142,-0.564891 0.0657,-0.131409 0.217752,-0.209232 0.282839,-0.339407 0.04292,-0.08584 0.05209,-0.191274 0.113136,-0.28284 0.03668,-0.05502 0.14904,-0.107712 0.169704,-0.169703 0.01192,-0.03578 -0.01686,-0.07941 0,-0.113136 0.0084,-0.01686 0.0397,0.0084 0.05657,0 0.05342,-0.02671 0.195848,-0.221995 0.226271,-0.282839 0.03505,-0.0701 0.117859,-0.230569 0.169704,-0.28256 0.07922,-0.07945 0.26224,-0.167844 0.338744,-0.282548 0.03447,-0.05169 0.04827,-0.137272 0.113135,-0.169704 0.108963,-0.05448 0.313139,-0.200003 0.395976,-0.282839 0.01333,-0.01333 -0.01333,-0.04324 0,-0.05657 1.18e-4,-1.19e-4 0.112655,1.19e-4 0.112928,0 0.107399,-0.05318 0.1595,-0.07098 0.27658,-0.109903 0.04935,-0.01641 0.06413,-0.08692 0.110815,-0.109843 0.262324,-0.128838 0.570822,-0.144402 0.847696,-0.282839 0.112846,-0.05642 0.234235,-0.117118 0.339407,-0.169704 0.06788,-0.03394 0.101823,-0.135762 0.169704,-0.169703 0.568988,-0.284494 1.348389,-0.494269 2.036442,-0.395975 0.213905,0.03056 0.443106,0.08013 0.622246,0.169703 0.0471,0.02355 0.19039,-0.03588 0.226271,0 0.01333,0.01333 -0.01333,0.04324 0,0.05657 1.5e-4,1.65e-4 0.112194,-1.64e-4 0.112664,0 0.03692,0.01225 0.06927,0.03541 0.103906,0.05311 0.03588,0.0177 0.06964,0.04061 0.107645,0.05311 0.195986,0.06448 0.441836,0.07978 0.621674,0.169703 0.111107,0.05555 0.07271,0.09696 0.169704,0.169704 0.139641,0.104731 0.456444,0.220664 0.622246,0.282839 0.198057,0.07427 0.380804,0.115346 0.565678,0.226272 0.180453,0.108271 0.37183,0.261867 0.565679,0.339406 0.141922,0.05677 0.396131,0.113292 0.50911,0.226272 0.02981,0.02981 0.02284,0.08784 0.05657,0.113135 0.05748,0.04311 0.263684,0.131842 0.339408,0.169704 0.03373,0.01686 0.07941,-0.01686 0.113135,0 0.0477,0.02385 0.06876,0.08355 0.113135,0.113136 0.201765,0.134509 0.470347,0.213348 0.678815,0.282839 0.177666,0.05922 0.352151,0.245232 0.50911,0.339407 0.112817,0.06769 0.286699,0.115066 0.395976,0.169704 0.13305,0.06652 0.21261,0.198306 0.339406,0.282839 0.04961,0.03307 0.12753,0.01441 0.16969,0.05657 0.01333,0.01334 -0.0084,0.03969 0,0.05655 0.07447,0.148916 0.312248,0.240978 0.395975,0.282839 0.104136,0.05206 0.009,0.117627 0.113129,0.169697 0.281888,0.140943 0.603195,0.280233 0.768348,0.448103 0.100312,0.101965 0.52471,-0.05359 0.618234,0.03993 0.01333,0.01333 -0.01333,0.04324 0,0.05657 0.06089,0.06089 0.429889,-0.01584 0.509111,0 0.31228,0.06246 0.648862,0.107146 0.961653,0.169704 0.123709,0.02474 0.33856,-0.05699 0.452543,0 0.241873,0.120937 0.531617,0.139495 0.79195,0.226272 0.07117,0.02372 0.142809,0.08532 0.226271,0.113136 0.478081,0.15936 1.011124,0.17176 1.503834,0.232509 0.166235,0.0205 1.128657,0.28149 1.244492,0.339408 0.07256,0.03628 0.150956,0.144599 0.226273,0.169704 0.135691,0.04523 0.315383,0.02228 0.452542,0.05657 0.08181,0.02045 0.146271,0.08647 0.226268,0.113137 0.314203,0.104732 0.646322,0.204005 0.961659,0.282839 0.198219,0.04955 0.374043,0.105826 0.565675,0.169704 0.104307,0.03477 0.179892,0.131097 0.28284,0.169701 0.293955,0.110235 0.607593,0.208465 0.905087,0.28284 0.296284,0.07407 0.561981,0.288523 0.848514,0.395974 0.228642,0.08574 0.641314,0.280206 0.84852,0.339407 0.05439,0.01554 0.114823,-0.01375 0.169706,0 0.05174,0.01295 0.06543,0.08928 0.113134,0.113134 0.250163,0.125084 0.567654,0.283629 0.84852,0.395979 0.359459,0.143781 0.702504,0.264947 1.074788,0.339407 0.12163,0.02434 0.130731,0.137854 0.226272,0.169701 0.126679,0.04223 0.60358,0.151038 0.678814,0.226272 0.01335,0.01335 -0.01334,0.04323 0,0.05657 0.03693,0.03693 0.510648,0.259255 0.565675,0.28284 0.07146,0.03064 0.156736,0.02179 0.226273,0.05657 0.235424,0.117712 -0.06047,-0.004 0.05657,0.113139 0.02669,0.02669 0.07941,-0.01684 0.113139,0 0.04768,0.02384 0.06876,0.08355 0.113134,0.113134 0.217511,0.145006 0.463996,0.252762 0.678814,0.395974 0.17151,0.114344 0.393405,0.140133 0.56568,0.226273 0.193186,0.09659 0.363587,0.29493 0.565674,0.395974 0.164349,0.08217 0.352677,0.12198 0.509113,0.226273 0.102124,0.06808 0.17396,0.17183 0.28284,0.226268 0.108566,0.05428 0.300063,0.07379 0.395974,0.169706 0.01335,0.01334 -0.01684,0.04813 0,0.05657 0.03374,0.01684 0.07941,-0.01684 0.113134,0 0.01684,0.0084 -0.01334,0.04323 0,0.05657 0.04218,0.04218 0.120091,0.02349 0.169706,0.05657 0.206546,0.137699 0.34353,0.20879 0.56568,0.28284 0.07417,0.02474 0.166562,0.190447 0.226268,0.226273 0.05113,0.03069 0.116373,0.02989 0.169706,0.05657 0.276862,0.138433 0.07238,0.06843 0.28284,0.226273 0.04768,0.03579 0.127543,0.01439 0.169706,0.05657 0.01334,0.01334 -0.01335,0.04323 0,0.05657 0.03709,0.03708 0.141362,0.08479 0.169701,0.113139 0.1351,0.1351 0.129757,0.31882 0.212978,0.486237 0.103788,0.20879 0.256096,0.470238 0.395014,0.678624 0.04708,0.07061 0.3331,0.326787 0.339407,0.339407 0.01684,0.03374 -0.02664,0.08647 0,0.113138 0.118167,0.118162 -0.0061,-0.180441 0.113139,0.05657 0.01904,0.03788 0.192822,0.386298 0.138194,0.448978 -0.164353,0.188563 -0.255856,0.495758 -0.40642,0.648756 -9.99e-4,9.99e-4 -0.09718,-10e-4 -0.09924,0 -0.145131,0.07207 -0.278552,0.217951 -0.434653,0.269985 -0.06788,0.02264 -0.158391,-0.02264 -0.226273,0 -0.108546,0.03618 -0.188759,0.122665 -0.282835,0.169706 -0.117078,0.05854 -0.264773,0.02379 -0.395979,0.05657 -0.165968,0.04148 -0.255591,0.212648 -0.395974,0.28284 -0.08937,0.04468 -0.293066,0.08741 -0.395974,0.113134 -0.425922,0.106481 -0.931706,-0.106482 -1.357633,0 -0.02584,0.0064 -0.03269,0.04463 -0.05657,0.05657 -0.07399,0.03698 -0.809265,0.08851 -0.905081,0.05657 -0.33158,-0.110525 -0.697732,-0.402277 -1.018221,-0.509108 -0.24492,-0.08164 0.02079,0.108141 -0.226273,-0.05657 -0.139998,-0.09333 -0.294245,-0.219521 -0.452546,-0.28284 -0.608747,-0.243501 -1.277485,-0.436517 -1.923307,-0.56568 -0.09245,-0.01849 -0.191373,0.02284 -0.282835,0 -0.152123,-0.03803 -0.300423,-0.0751 -0.452546,-0.113134 -0.106477,-0.02664 -0.232925,0.02664 -0.339407,0 -0.25849,-0.06462 -0.855022,-0.224968 -1.131355,-0.169706 -0.489311,0.09787 -0.751659,0.361328 -1.30106,0.28284 -0.428451,-0.06121 -0.816668,-0.324668 -1.244494,-0.395974 -0.164003,-0.02734 -0.407294,-0.004 -0.56568,-0.05657 -0.401192,-0.13373 -0.713285,-0.255796 -1.131355,-0.339407 -0.124034,-0.02479 -0.223144,-0.119876 -0.339408,-0.169706 -0.42773,-0.18331 -0.8749,-0.423622 -1.30106,-0.565679 -0.177021,-0.05901 -0.380603,-0.108011 -0.565679,-0.169701 -0.08485,-0.02829 -0.05657,0.05657 -0.169703,0 -0.01686,-0.0084 0.01333,-0.04323 0,-0.05657 -0.05542,-0.05542 -0.451699,0.0071 -0.509112,0 -0.519927,-0.06499 -1.213818,-0.234905 -1.697034,-0.395979 -0.367186,-0.122395 0.233537,0.02394 -0.282839,-0.169701 -0.09003,-0.03379 -0.192815,-0.02279 -0.28284,-0.05657 -0.161756,-0.06066 -0.468973,-0.247445 -0.622246,-0.339407 -0.281726,-0.169036 -0.453058,-0.396149 -0.791951,-0.509113 -0.192664,-0.06422 -0.471856,-0.128313 -0.678813,-0.169701 -0.17108,-0.03424 -0.267641,0.01274 -0.452543,-0.05657 -0.410423,-0.153907 -0.86362,-0.230046 -1.30106,-0.339407 -0.29053,-0.07263 -0.549158,-0.188848 -0.848519,-0.226268 -0.149683,-0.01869 -0.302859,0.01869 -0.452543,0 -0.209548,-0.02619 -0.413076,-0.08326 -0.622247,-0.113134 -0.351203,-0.05017 -0.722661,0.04403 -1.074788,0 -0.347668,-0.04348 -0.692907,-0.141557 -1.04278,-0.172709 -0.294388,-0.02619 -0.549518,0.01159 -0.819295,0.05657 -0.22521,0.03753 -0.508153,0 -0.735382,0 -0.472611,0 -0.945223,0 -1.417838,0 -0.558825,0 -1.086513,-0.01699 -1.640467,-0.05657 -0.18808,-0.01345 -0.378575,0.02339 -0.565679,0 -0.489103,-0.06114 -1.031752,-0.118517 -1.527332,-0.05657 -0.79595,0.09949 -1.563003,0.113134 -2.375849,0.113134 -0.35634,0 -0.977813,-0.08081 -1.301061,0 -0.243883,0.06097 -0.484209,0.01469 -0.735382,0.05657 -0.64978,0.108295 -1.399234,0.103073 -2.041173,-0.05741 -0.256119,-0.06403 -0.876981,0 -1.018221,0 -0.150825,0 -0.25732,-0.03678 -0.395975,-0.05657 -0.166309,-0.02374 -0.342801,0.02374 -0.509111,0 -0.155,-0.02214 -0.305432,-0.07636 -0.452543,-0.113139 -0.09146,-0.02284 -0.189507,0.01334 -0.282839,0 -0.837016,-0.119571 -2.102053,0.08033 -2.828392,-0.28284 -0.09407,-0.04703 -0.29187,0.01734 -0.395975,0 -0.314585,-0.05243 -2.228241,-0.248364 -2.319282,-0.339407 -0.01334,-0.01334 0.01333,-0.04323 0,-0.05657 -0.04199,-0.04198 -0.671984,-0.335993 -0.79195,-0.395974 -0.03429,-0.01714 -0.146,-0.03284 -0.169703,-0.05657 -0.01333,-0.01334 0.01333,-0.04323 0,-0.05657 -0.01333,-0.01334 -0.0397,0.0084 -0.05657,0 -0.123715,-0.06192 -0.0182,-0.03519 -0.05617,-0.111889 -0.03173,-0.0641 -0.227212,-0.160235 -0.26688,-0.213148 -0.09984,-0.133166 -0.299602,-0.374988 -0.445569,-0.557449 -0.360602,-0.450751 -0.69414,-0.697931 -0.272962,-1.303"
         id="path36" />
      <path
         style="fill:none;stroke:#000000;stroke-width:0.0395974px;stroke-linecap:butt;stroke-linejoin:miter;stroke-opacity:1"
         d="m 20.949378,43.516695 c 0.316358,-0.266447 0.723319,-0.288353 1.076947,-0.40623 0.0253,-0.0084 0.05615,0.01195 0.08,0 0.03373,-0.01684 0.04862,-0.05908 0.08,-0.08 0.08138,-0.05425 0.185124,-0.05675 0.279997,-0.120001 0.03138,-0.02089 0.04499,-0.06599 0.08,-0.08 0.138722,-0.05549 0.300316,-0.08508 0.439994,-0.119996 0.03755,-0.0094 0.217957,-0.09796 0.239998,-0.120002 0.0094,-0.0094 -0.01192,-0.03404 0,-0.03998 0.02385,-0.01195 0.05413,0.0064 0.08,0 0.0948,-0.02369 0.160789,-0.120396 0.239997,-0.16 0.193329,-0.09666 0.449228,-0.104613 0.639992,-0.199994 0.03371,-0.01684 0.134015,0.02549 0.159998,0 0.0093,-0.0091 -0.0089,-0.02964 0,-0.03923 0.09373,-0.101029 1.272931,0.223314 1.364458,0.223314 0.227477,0 0.02633,-0.01789 0.199998,0.03998 0.164479,0.05483 0.314019,0.05629 0.479994,0.08 0.09609,0.01375 0.183905,0.06627 0.279997,0.08 0.144694,0.02069 0.295533,0.01934 0.439994,0.03998 0.232632,0.03324 0.456973,0.133095 0.679992,0.199998 0.251137,0.07535 0.508442,0.07807 0.759991,0.120001 0.315518,0.05258 0.647556,0.137509 0.959988,0.199994 0.121774,0.02434 0.229444,0.103683 0.359996,0.120001 0.377819,0.04723 0.74474,0.09746 1.119986,0.159995 0.05882,0.0098 0.102151,0.06554 0.159998,0.08 0.05174,0.01294 0.107701,-0.01045 0.159998,0 0.16328,0.03264 0.313194,0.05915 0.479994,0.08 0.265102,0.03314 0.05861,0.03573 0.279997,0.08 0.193805,0.03879 0.405181,0.0075 0.599993,0.03998 0.212023,0.03534 0.388736,0.08982 0.599992,0.119996 0.173699,0.02479 1.33775,0.03409 1.439983,0 0.01789,-0.0059 0.02211,-0.03404 0.04,-0.03998 0.234869,-0.07829 0.553998,0.03513 0.799991,0 0.861321,-0.123045 1.739983,-0.08286 2.599966,0.03998 0.24986,0.03569 0.512825,-0.0094 0.759991,0.03998 0.613159,0.12263 1.25569,0.255946 1.879977,0.359994 0.07815,0.01304 0.342709,0.01135 0.399994,0.03998 0.09922,0.04963 0.205594,0.0914 0.319996,0.119997 0.03881,0.0097 0.09172,-0.02829 0.119999,0 0.0094,0.0094 -0.0094,0.03059 0,0.03998 0.02455,0.02454 0.165359,-0.0069 0.199996,0 0.187342,0.03749 0.378677,0.03469 0.559994,0.08 0.21333,0.05333 0.466661,-0.05333 0.679992,0 0.0952,0.02379 0.849126,0.178842 0.877137,0.15996 0.08942,-0.06027 0.07578,-0.21066 0.151063,-0.322589 0.06449,-0.09589 0.171618,-0.191987 0.222395,-0.293541 0.01193,-0.02384 -0.01886,-0.06114 0,-0.08 0.08278,-0.08278 -0.0032,0.126503 0.08,-0.03998 0.03182,-0.06363 -0.0091,-0.137074 0.0348,-0.182826 0.524581,-0.546862 1.000203,-0.94556 1.731975,-1.189481 0.05151,-0.01719 0.108489,-0.102833 0.159997,-0.120001 0.07121,-0.02374 0.168791,-0.01624 0.239998,-0.03998 0.03823,-0.01274 0.203917,-0.16196 0.279997,-0.199999 0.01851,-0.0092 0.06113,0.0092 0.0797,0 0.148999,-0.07371 0.307134,-0.115638 0.473094,-0.157126 0.05036,-0.01259 0.152151,0.02394 0.199999,0 0.05145,-0.02574 0.545938,-0.142917 0.594143,-0.120001 0.150444,0.07153 0.297683,0.192696 0.443589,0.276067 0.09061,0.05178 0.223993,0.088 0.319995,0.120002 0.289734,0.09657 -0.06306,-0.01155 0.119999,0.08 0.230829,0.115413 0.430427,0.220285 0.639991,0.359999 0.01109,0.0074 0.02667,0 0.04,0 0.02666,0.01334 0.05615,0.02209 0.08,0.03998 0.08456,0.06342 0.209413,0.169416 0.279997,0.240003 0.02108,0.02109 0.01615,0.06211 0.04,0.08 0.03373,0.02529 0.08627,0.01469 0.119999,0.03998 0.02385,0.01789 0.01892,0.05892 0.04,0.08 0.0842,0.0842 0.238103,0.118107 0.319996,0.199999 0.06208,0.06208 0.111084,0.155542 0.199997,0.199998 0.02385,0.01195 0.0547,-0.0084 0.08,0 0.08847,0.02949 0.193989,0.07699 0.279997,0.119997 0.08701,0.04348 0.19933,-0.04638 0.2871,-0.04638 0.08909,0 0.414411,-0.01205 0.442373,-0.03998 0.0094,-0.0094 -0.0094,-0.03059 0,-0.03998 0.02032,-0.02034 0.177052,0.0057 0.199997,0 0.145351,-0.03634 0.271834,-0.05741 0.396109,-0.119766 0.02136,-0.0107 0.234838,-0.01554 0.252057,0 0.04238,0.03823 0.06874,0.0848 0.14451,0.115338 0.02999,0.0121 0.153248,0.04523 0.183254,0.07568 0.126069,0.127973 0.193956,0.249304 0.359996,0.359994 l 0.239997,0.16 c 0.02219,0.01479 0.06114,-0.01884 0.08,0 0.0094,0.0094 -0.0094,0.03059 0,0.03998 0.04411,0.04413 0.201513,0.177213 0.279996,0.239998 0.161988,0.129587 0.426108,0.226108 0.559994,0.359993 0.117653,0.117657 0.160655,0.44263 0.199996,0.599996 0.01356,0.05421 0.135448,0.29537 0.159998,0.319995 0.0094,0.0094 0.03042,-0.0093 0.03988,0 0.01789,0.01764 -0.01166,0.09254 0,0.115833 0.0767,0.153267 0.196606,0.468084 0.353834,0.546697 0.01157,0.0058 0.06723,-0.0056 0.07912,0 0.459648,0.218691 0.948514,0.272614 1.446942,0.34382 0.03918,0.0056 0.240797,-0.0056 0.279996,0 0.13378,0.01909 0.266451,0.05774 0.399992,0.08 0.280151,0.04668 0.597957,-0.02049 0.879992,0 0.09966,0.0072 0.196665,0.03863 0.296399,0.04478 0.486192,0.03019 0.990662,-0.05383 1.475115,0 0.125319,-2.95e-4 0.238023,0.06475 0.359999,0.08 0.182815,0.02284 0.378401,-0.03029 0.559992,0 0.175249,0.02919 0.341996,0.102198 0.519993,0.119996 0.210595,0.02104 0.517425,-0.0112 0.719992,0.03998 0.09876,0.02494 0.183051,0.09155 0.280446,0.121376 0.168722,0.05168 0.856837,0.100344 1.080456,0.04443 0.384338,-0.09609 0.804057,-0.12068 1.200896,-0.199998 0.102568,-0.02049 0.217432,0.02054 0.319995,0 0.09464,-0.01894 0.187484,-0.04918 0.280001,-0.08 0.08053,-0.02684 0.197894,0.01369 0.279996,0 0.242091,-0.04033 0.47899,-0.111799 0.719992,-0.159999 0.02104,-0.004 0.180841,0.01914 0.199994,0 0.0094,-0.0094 -0.0094,-0.03059 0,-0.03998 0.01849,-0.01849 0.09585,0.01209 0.120001,0 0.117752,-0.05888 0.334384,-0.134501 0.476396,-0.158171 0.252907,-0.04213 0.995175,-0.28196 0.995175,-0.28196 -0.01005,-0.01564 0.851898,-0.292846 0.919571,-0.360284 0.07038,-0.07013 0.979107,-0.777943 0.928237,-0.880811 -0.03099,-0.06273 0.38182,-0.756967 0.38182,-0.833106"
         id="path42"
         sodipodi:nodetypes="ccssssssscsscsssssssssssscsssscssscssssscssssssssssccsssssscscssssssscsssscssssscssssssssscscssscssssssssscssssssssc" />
      <path
         style="fill:none;stroke:#000000;stroke-width:0.0395974px;stroke-linecap:butt;stroke-linejoin:miter;stroke-opacity:1"
         d="m 63.613219,42.664496 c -0.08388,-0.153642 -0.167652,-0.458023 -0.121796,-0.641449 0.01375,-0.05496 0.04373,-0.11113 0.06,-0.16 0.02099,-0.06296 0.191642,-0.267761 0.239997,-0.299993 0.01754,-0.01169 0.04508,-0.0051 0.06,-0.01999 0.03174,-0.03174 0.03224,-0.07221 0.06,-0.1 0.0626,-0.06259 0.177178,-0.06619 0.26,-0.08 0.150203,-0.02504 0.334159,-0.04863 0.479989,0 0.01599,0.0053 0.06872,-0.0113 0.08,0 0.0045,0.0045 -0.0045,0.01529 0,0.01999 0.01574,0.01574 0.137949,0.06898 0.159995,0.08 0.04938,0.02469 0.110625,0.03534 0.16,0.06 0.07157,0.03578 0.08834,0.148344 0.139998,0.199998 0.01055,0.01055 0.02944,0.0094 0.03998,0.01999 0.02844,0.02844 0.02734,0.102069 0.03998,0.139998 0.008,0.02399 0.052,0.03599 0.06,0.06 0.02934,0.08805 0.07717,0.168661 0.1,0.259994 0.04303,0.17206 -0.05457,0.349148 -0.119996,0.479995 -0.02859,0.05714 -0.105647,0.06847 -0.139998,0.120001 -0.02269,0.03399 -0.06814,0.09876 -0.1,0.119996 -0.05206,0.03469 -0.106106,0.04203 -0.16,0.06 -0.03534,0.01179 -0.05883,0.04968 -0.1,0.06 -0.08953,0.02239 -0.224009,0.03918 -0.319995,0.01999 -0.04523,-0.009 -0.08319,-0.02774 -0.119996,-0.03998 -0.01899,-0.0063 -0.04588,0.01414 -0.06,0 -0.0045,-0.0045 0.0045,-0.01529 0,-0.01999 -0.01414,-0.01414 -0.04103,0.0063 -0.06,0 -0.03199,-0.01065 -0.04798,-0.06933 -0.08,-0.08 -0.01979,-0.0066 -0.06437,-0.0045 -0.08,-0.01999 -0.0045,-0.0045 0.0045,-0.01529 0,-0.01999 -0.0056,-0.0056 -0.06905,-0.03634 -0.08,-0.03998 -0.01799,-0.0126 -0.04103,0.0063 -0.06,0 -0.102043,-0.03379 -0.241037,-0.02339 -0.296869,-0.0779 -0.02594,-0.02534 -0.02529,-0.06811 -0.04133,-0.100639 z"
         id="path44" />
      <path
         style="fill:none;stroke:#000000;stroke-width:0.0395974px;stroke-linecap:butt;stroke-linejoin:miter;stroke-opacity:1"
         d="m 67.989108,45.243002 c -0.117932,0.141058 -0.219121,0.291886 -0.328631,0.437897 -0.109391,0.145856 -0.279051,0.25905 -0.399997,0.379995 -0.02749,0.02749 -0.03574,0.06964 -0.06,0.1 -0.04198,0.05248 -0.09589,0.09588 -0.140003,0.139998 -0.02389,0.02389 -0.04668,0.07336 -0.06,0.1 -0.03154,0.06304 -0.10009,0.120136 -0.139999,0.179997 -0.01834,0.02749 -0.03084,0.02059 -0.06,0.03998 -0.06221,0.04148 -0.22074,0.200743 -0.279996,0.259999 -0.2223,0.222294 -0.421949,0.461622 -0.659992,0.659991 -0.04058,0.03379 -0.114158,0.09708 -0.16,0.119996 -0.02459,0.0123 -0.05613,0.0063 -0.08,0.01999 -0.04523,0.02584 -0.07584,0.0724 -0.120001,0.1 -0.180852,0.113034 -0.375452,0.200153 -0.557808,0.309339 -0.188693,0.112984 -0.359224,0.260374 -0.551566,0.367025 -0.304386,0.168787 -0.622292,0.318731 -0.940222,0.460028 -0.192387,0.08551 0.03618,-0.01209 -0.159995,0.1 -0.134061,0.07661 -0.277907,0.136829 -0.420079,0.199998 -0.143792,0.06389 -0.28396,0.142282 -0.419994,0.220016 -0.09368,0.05353 -0.177328,0.121495 -0.279996,0.16 -0.187634,0.07036 -0.376592,0.141397 -0.559993,0.219995 -0.228067,0.09774 -0.500631,0.120156 -0.739989,0.179997 -0.09397,0.02349 -0.187553,0.04153 -0.280001,0.06 -0.04158,0.0083 -0.181706,0.07992 -0.198554,0.07992 -0.01264,0 0.054,0.03838 0.112284,0.05783 0.04168,0.0139 0.262319,0.02379 0.299998,0.01999 0.02339,-0.0025 0.281901,-0.01394 0.299993,-0.01999 0.0089,-0.003 0.01335,-0.01334 0.01999,-0.01999 0.01999,-0.0066 0.03973,-0.01419 0.06,-0.01999 0.173359,-0.04953 0.346994,-0.07057 0.519993,-0.119997 0.07737,-0.02209 0.145521,-0.05207 0.220001,-0.08 0.131921,-0.04948 0.293475,-0.05674 0.419994,-0.120001 0.102433,-0.05121 -0.03104,-0.03813 0.1,-0.06 0.121951,-0.02034 0.266092,-0.04303 0.379996,-0.1 0.14682,-0.07341 0.289357,-0.175439 0.439991,-0.239997 0.02529,-0.01085 0.05474,-0.0091 0.08,-0.01999 0.0633,-0.02714 0.120831,-0.0845 0.179997,-0.120002 0.109365,-0.06562 0.227422,-0.123709 0.339996,-0.179996 0.145311,-0.07266 -0.01159,-0.0056 0.1,-0.08 0.06641,-0.04428 0.148434,-0.08422 0.219995,-0.120001 0.261049,-0.130522 0.509193,-0.276382 0.76157,-0.420599 0.06281,-0.03589 0.139469,-0.05677 0.199999,-0.1 0.09526,-0.06804 0.180916,-0.153942 0.279996,-0.219996 0.05027,-0.03354 0.116563,-0.05656 0.159995,-0.1 0.01699,-0.01699 0.02299,-0.04298 0.03998,-0.06 0.04563,-0.04563 0.114373,-0.05437 0.16,-0.1 0.102208,-0.102203 -0.08386,0.02789 0.06,-0.08 0.07039,-0.05279 0.157966,-0.09796 0.219996,-0.16 0.01055,-0.01055 0.0094,-0.02944 0.01999,-0.03998 0.08328,-0.08328 0.206685,-0.145351 0.299992,-0.219995 0.06939,-0.05551 0.131787,-0.123155 0.199999,-0.179997 0.267426,-0.222854 0.479045,-0.539046 0.719992,-0.779993 0.01055,-0.01055 0.02944,-0.0094 0.03998,-0.01999 0.09664,-0.09664 0.181361,-0.201358 0.279996,-0.299993 0.03823,-0.03823 0.08744,-0.05659 0.120001,-0.1 0.0089,-0.01195 0.0094,-0.02944 0.01999,-0.03998 0.02109,-0.02109 0.05892,-0.01894 0.08,-0.03998 0.04893,-0.04893 0.08149,-0.113194 0.139999,-0.16 0.01165,-0.0093 0.02944,-0.0094 0.03998,-0.01999 0.02469,-0.02469 0.0511,-0.0911 0.08,-0.120001 0.02474,-0.02479 0.104792,-0.05438 0.120001,-0.1 0.004,-0.01264 -0.004,-0.02734 0,-0.03998 0.01065,-0.03199 0.06933,-0.04798 0.08,-0.08 0.01479,-0.04433 0.02564,-0.105592 0.06,-0.139998 0.0045,-0.0045 0.01524,0.0045 0.01999,0 0.0069,-0.0068 -0.0066,-0.03134 0,-0.03843 0.0087,-0.0094 0.02164,-0.02124 0.03029,-0.03114"
         id="path46" />
      <path
         style="fill:none;stroke:#000000;stroke-width:0.0395974px;stroke-linecap:butt;stroke-linejoin:miter;stroke-opacity:1"
         d="m 70.163464,45.287209 c 0.342385,0.239698 0.801833,0.215512 1.154675,0.427216 0.186019,0.111615 -0.140168,-0.04008 0.1,0.08 0.09297,0.04648 0.174199,0.0828 0.259999,0.139998 0.07345,0.04898 0.169486,0.06712 0.239998,0.119996 0.01509,0.0113 0.02314,0.03159 0.03998,0.03998 0.01195,0.0059 0.02889,-0.0074 0.03998,0 0.01239,0.0083 0.0094,0.02949 0.01999,0.03998 0.0045,0.0045 0.169306,0.114654 0.179992,0.119997 0.09822,0.04913 0.192272,0.09421 0.279996,0.16 0.03563,0.02674 0.06297,0.01529 0.1,0.03998 0.05694,0.03793 0.101964,0.105177 0.16,0.139998 0.01809,0.01085 0.04248,0.0083 0.06,0.01999 0.02354,0.01569 0.03699,0.04358 0.06001,0.06 0.03843,0.02744 0.42973,0.259999 0.459993,0.259999 0.0035,0 -0.07851,-0.02614 -0.133701,-0.05371 -0.111659,-0.05583 -0.233115,-0.0777 -0.359998,-0.120001 -0.03509,-0.0117 -0.134805,-0.03479 -0.16,-0.06 -0.0045,-0.0045 0.0045,-0.01529 0,-0.01999 -0.002,-0.002 -0.07627,-0.01749 -0.08,-0.01999 -0.07076,-0.04718 -0.271945,-0.217076 -0.354181,-0.217076 -0.01499,0 -0.424253,-0.227683 -0.43138,-0.23481 -0.0045,-0.0045 0.0057,-0.01659 0,-0.01999 -0.07722,-0.04633 -0.164448,-0.07481 -0.239997,-0.1 -0.06468,-0.02154 -0.13511,-0.07404 -0.199994,-0.1 -0.03239,-0.01294 -0.06672,-0.0089 -0.1,-0.01999 -0.05329,-0.01774 -0.120151,-0.06803 -0.180002,-0.08 -0.09067,-0.01814 -0.176753,-0.05225 -0.259994,-0.08 -0.02529,-0.0084 -0.0547,0.0084 -0.08,0 -0.130911,-0.04363 -0.265566,-0.09519 -0.399992,-0.139998 -0.10952,-0.03648 -0.206856,-0.05342 -0.299998,-0.1 -0.02674,-0.01334 -0.126293,-0.0127 -0.126293,-0.05041 0.139348,-0.09626 0.175238,-0.100584 0.250878,-0.231201 z"
         id="path52" />
      <path
         style="fill:none;stroke:#000000;stroke-width:0.0395974px;stroke-linecap:butt;stroke-linejoin:miter;stroke-opacity:1"
         d="m 69.381907,45.93586 c 0.317635,0.271645 0.777273,0.291941 1.108019,0.536732 0.174374,0.129057 -0.13564,-0.05343 0.09181,0.08928 0.08805,0.05524 0.165388,0.09923 0.245266,0.164453 0.06838,0.05584 0.162209,0.08317 0.227282,0.142612 0.01394,0.01274 0.01999,0.03364 0.03594,0.04368 0.01129,0.0071 0.02949,-0.0045 0.03983,0.004 0.01155,0.0094 0.0065,0.03024 0.01604,0.04173 0.004,0.0045 0.157446,0.130467 0.167567,0.13682 0.09302,0.05837 0.18227,0.112334 0.263233,0.186289 0.03289,0.03004 0.0612,0.02134 0.09567,0.04948 0.053,0.04328 0.09133,0.114533 0.14573,0.154797 0.01694,0.01254 0.04148,0.01234 0.05779,0.02569 0.02189,0.01789 0.03259,0.04693 0.05393,0.06551 0.03558,0.03104 0.402611,0.300282 0.432729,0.303206 0.0035,3e-4 -0.07562,-0.03359 -0.127888,-0.06637 -0.105742,-0.06635 -0.224519,-0.09985 -0.346724,-0.154207 -0.03379,-0.01504 -0.130812,-0.04763 -0.153458,-0.07517 -0.0045,-0.0051 0.0061,-0.01474 0.002,-0.01989 -0.002,-0.002 -0.07422,-0.02479 -0.07769,-0.02764 -0.06587,-0.05378 -0.249708,-0.242327 -0.33156,-0.250268 -0.01494,-0.0015 -0.400282,-0.267586 -0.40669,-0.275373 -0.004,-0.0051 0.0073,-0.01594 0.002,-0.01989 -0.07239,-0.05358 -0.156457,-0.09035 -0.229217,-0.12271 -0.0623,-0.02769 -0.127333,-0.08674 -0.189403,-0.118847 -0.03099,-0.01604 -0.06555,-0.01529 -0.0976,-0.02959 -0.05133,-0.02284 -0.113019,-0.07931 -0.171436,-0.09701 -0.08849,-0.02679 -0.17088,-0.06908 -0.251052,-0.104733 -0.02439,-0.01084 -0.05526,0.003 -0.07963,-0.0077 -0.126084,-0.05608 -0.255131,-0.120391 -0.384604,-0.177972 -0.105482,-0.04693 -0.200728,-0.07315 -0.288937,-0.128503 -0.02534,-0.01589 -0.124479,-0.02479 -0.120836,-0.06238 0.147995,-0.08235 0.184135,-0.08319 0.272035,-0.205886 z"
         id="path52-3" />
      <path
         style="fill:none;stroke:#000000;stroke-width:0.0395974px;stroke-linecap:butt;stroke-linejoin:miter;stroke-opacity:1"
         d="m 67.883641,46.552919 c 0.16086,0.385753 0.561867,0.611301 0.746541,0.979012 0.09737,0.193856 -0.09692,-0.108901 0.04163,0.121101 0.05364,0.08903 0.102804,0.163193 0.144652,0.25744 0.03584,0.08069 0.107216,0.14743 0.138463,0.229841 0.0067,0.01764 0.0025,0.03903 0.01234,0.0552 0.0069,0.01144 0.02839,0.0092 0.03379,0.02144 0.006,0.01365 -0.0078,0.02994 -0.0045,0.04448 0.0015,0.0059 0.08162,0.187484 0.08778,0.197715 0.05667,0.09407 0.111959,0.182505 0.150828,0.285039 0.01579,0.04163 0.04498,0.04663 0.06305,0.08732 0.02779,0.06255 0.02984,0.143422 0.06019,0.203907 0.0094,0.01884 0.03144,0.02974 0.03998,0.04903 0.01149,0.02584 0.0079,0.05659 0.01854,0.0828 0.01774,0.04373 0.223769,0.449663 0.249324,0.465866 0.003,0.002 -0.05233,-0.06409 -0.08417,-0.116942 -0.06442,-0.106932 -0.155292,-0.190433 -0.239817,-0.294086 -0.02334,-0.02864 -0.09523,-0.101564 -0.103013,-0.136334 -0.0015,-0.0065 0.01215,-0.0104 0.01069,-0.01689 -5e-4,-0.003 -0.05504,-0.05563 -0.05686,-0.05972 -0.03449,-0.07772 -0.113473,-0.328936 -0.18293,-0.372963 -0.01265,-0.008 -0.236439,-0.41944 -0.238643,-0.429276 -0.0015,-0.0065 0.01369,-0.01095 0.0107,-0.01689 -0.04043,-0.08047 -0.09884,-0.151228 -0.14917,-0.212948 -0.04308,-0.05283 -0.07448,-0.13487 -0.115383,-0.191527 -0.02044,-0.02829 -0.05158,-0.04323 -0.07375,-0.07043 -0.03549,-0.04353 -0.06506,-0.12178 -0.1092,-0.163933 -0.06687,-0.06386 -0.121321,-0.138764 -0.176773,-0.206761 -0.01684,-0.02069 -0.05071,-0.02219 -0.06757,-0.04283 -0.08721,-0.106942 -0.173344,-0.222575 -0.262893,-0.33239 -0.07296,-0.08946 -0.146111,-0.155867 -0.199844,-0.24507 -0.01544,-0.02559 -0.09988,-0.07832 -0.07968,-0.110196 0.169236,-0.0067 0.201858,0.0088 0.335673,-0.06096 z"
         id="path52-6" />
      <path
         style="fill:none;stroke:#000000;stroke-width:0.0395974px;stroke-linecap:butt;stroke-linejoin:miter;stroke-opacity:1"
         d="m 42.233409,44.489699 c -0.132522,0.131646 -0.299905,0.190812 -0.454529,0.293895 -0.04898,0.03264 -0.08825,0.08655 -0.141418,0.113134 -0.02566,0.01284 -0.09468,0.03808 -0.113137,0.05657 -0.0067,0.0066 0.0067,0.02164 0,0.02829 -0.0067,0.0066 -0.02162,-0.0066 -0.02828,0 -0.0067,0.0066 0.0042,0.01989 0,0.02829 -0.0155,0.03059 -0.06263,0.04418 -0.08005,0.05288 -0.03173,0.01579 -0.117594,0.143387 -0.145986,0.171316 -0.04234,0.04163 -0.145699,0.06756 -0.184201,0.104697 -0.01112,0.01075 -0.04518,0.0672 -0.07784,0.07796 -0.01729,0.0057 -0.03954,-0.01024 -0.05461,0 -0.01726,0.0117 -0.01054,0.04443 -0.02792,0.05598 -0.0157,0.01039 -0.03805,-0.0035 -0.05651,0 -0.02923,0.0058 -0.05657,0.01884 -0.08485,0.02829 -0.03771,0.01884 -0.07198,0.04743 -0.113135,0.05657 -0.04602,0.0102 -0.09475,-0.0066 -0.14142,0 -0.02097,0.003 -0.237402,0.124265 -0.254554,0.141418 -0.0149,0.01489 -0.01338,0.04168 -0.02828,0.05657 -0.02005,0.02004 -0.246964,0.132451 -0.282839,0.141422 -0.36169,0.09042 -0.713754,0.20797 -1.074789,0.311123 -0.190376,0.05439 -0.371637,0.159176 -0.565679,0.197985 -0.106126,0.02124 -0.20254,0.06313 -0.311123,0.08486 -0.151095,0.03024 -0.304928,0.04793 -0.452543,0.08485 -0.361688,0.09042 -0.999802,-0.01559 -1.301062,0.08485 -0.07637,0.02544 -0.178188,-0.02544 -0.254555,0 -0.12106,0.04033 -0.265243,0.05217 -0.395975,0.08485 -0.157852,0.03948 -0.317196,0.100514 -0.480827,0.141422 -0.0732,0.01829 -0.538071,0.151269 -0.616059,0.113134 -0.05108,-0.02499 -0.09628,-0.07489 -0.154932,-0.09928 -0.09959,-0.04143 -0.21415,-0.0677 -0.305012,-0.113134 -0.134152,-0.06708 -0.518383,-0.697362 -0.593962,-0.84852 -0.01132,-0.02264 0.01131,-0.06223 0,-0.08485 -0.03225,-0.0645 -0.0658,-0.150054 -0.08485,-0.226273 -0.03616,-0.144621 0.03616,0.03149 0,-0.113133 -0.0352,-0.140778 -0.107856,-0.380531 -0.05657,-0.536077 0.08339,-0.252912 0.206295,-0.46746 0.305314,-0.667804 0.02719,-0.05502 0.109759,-0.08215 0.137179,-0.136984 0.03441,-0.06881 0.09439,-0.09439 0.14142,-0.141422 0.0067,-0.0066 -0.0042,-0.01984 0,-0.02829 0.01743,-0.03489 0.183042,-0.155582 0.207515,-0.178282"
         id="path75" />
      <path
         style="fill:none;stroke:#000000;stroke-width:0.0395974px;stroke-linecap:butt;stroke-linejoin:miter;stroke-opacity:1"
         d="m 43.981789,44.613428 c -0.266653,0.272349 -0.298635,0.629469 -0.447402,0.927003 -0.03621,0.07243 0.0062,0.346749 -0.02562,0.44154 -0.03074,0.09149 -0.13654,0.586547 -0.08109,0.697437 0.06172,0.123434 0.373394,0.286658 0.48292,0.341421 0.08003,0.04003 0.311015,-3.5e-5 0.395975,0.02829 0.207992,0.06933 0.377281,0.01654 0.537395,0.05657 0.107453,0.02684 0.07454,0.03893 0.197986,0.05657 0.166013,0.02374 0.342294,-0.01669 0.509112,0 0.246694,0.02469 0.490457,0.05424 0.735381,0.08486 0.141772,0.01774 0.282243,0.008 0.424259,0.02829 0.09919,0.01419 0.210128,0 0.311123,0 0.380871,0 0.752284,-0.02829 1.131357,-0.02829 0.320571,0 0.637813,0.0064 0.954822,-0.02874 0.123803,-0.01369 0.275133,0.03024 0.396078,0 0.149133,-0.03728 0.29785,-0.05907 0.452543,-0.08485 0.118454,-0.01974 0.220606,-0.09616 0.339407,-0.113134 0.22597,-0.03229 0.455834,-0.04028 0.678814,-0.08485 0.176421,-0.03529 0.353772,-0.08253 0.537394,-0.113138 0.167275,-0.02789 0.322028,-0.130003 0.480827,-0.169701 0.05724,-0.0143 0.06718,-0.06954 0.113138,-0.08485 0.0478,-0.01594 0.118871,-0.04388 0.169702,-0.05657 0.03659,-0.0091 0.07655,0.0091 0.113137,0 0.249293,-0.06232 0.521257,-0.06061 0.763667,-0.141417 0.01726,-0.0057 0.06759,-0.05082 0.08485,-0.05657 0.07204,-0.02399 0.149078,-0.03084 0.226271,-0.05657 0.05807,-0.01934 0.08198,-0.06999 0.141419,-0.08486 0.08823,-0.02204 0.173115,-0.0577 0.254557,-0.08485 0.08828,-0.02944 -0.0094,-0.01884 0.02828,-0.05657 0.0043,-0.0045 0.05104,0.004 0.05579,0 0.02771,-0.02474 0.149285,-0.149145 0.220855,-0.166133 0.02698,-0.0064 0.05601,0.0055 0.08319,0 0.05071,-0.01025 0.07363,-0.03683 0.113137,-0.05657 0.01686,-0.0084 0.04323,0.01335 0.05657,0 0.0067,-0.0066 -0.0067,-0.02164 0,-0.02829 0.02,-0.01999 0.05802,0.0089 0.08485,0 0.04833,-0.01609 0.09238,-0.05966 0.138485,-0.08257 0.01568,-0.0078 0.04016,0.01239 0.05253,0 0.05215,-0.05222 0.08464,-0.129472 0.161873,-0.167881"
         id="path77" />
      <path
         style="fill:none;stroke:#000000;stroke-width:0.0395974px;stroke-linecap:butt;stroke-linejoin:miter;stroke-opacity:1"
         d="m 55.291901,46.420798 c -0.03893,-0.003 -0.07786,-0.0063 -0.116793,-0.0094 -0.01713,-0.0082 -0.03256,-0.02219 -0.0514,-0.02464 -0.189174,-0.02414 -0.379811,-0.02529 -0.56802,-0.05669 -0.03719,-0.0062 -0.07941,0.01684 -0.113136,0 -0.0084,-0.004 0.0067,-0.02164 0,-0.02829 -0.02015,-0.02014 -0.138651,-0.01584 -0.169704,-0.02829 -0.0962,-0.03848 -0.181017,-0.08768 -0.282838,-0.113134 -0.02655,-0.0066 -0.09564,0.01749 -0.113136,0 -0.03492,-0.03494 -0.0087,-0.02829 -0.0845,-0.02829"
         id="path79" />
      <path
         style="fill:#c83737;stroke-width:0.056568"
         d="M 10.407055,47.346531 C 10.110461,47.259112 9.2849569,46.824029 9.08072,46.647481 8.9001635,46.491404 8.8657325,46.423217 8.8418222,46.174423 c -0.025889,-0.26946 0.039834,-0.604219 0.2200055,-1.120334 0.032587,-0.09334 0.080842,-0.27153 0.1072464,-0.395974 0.1201811,-0.566359 0.2774221,-0.88432 0.624121,-1.262071 0.1910173,-0.208121 0.4344179,-0.543859 0.5408999,-0.746092 0.219066,-0.416066 0.439986,-0.726089 0.819622,-1.150212 0.475246,-0.530934 0.530344,-0.691658 0.530344,-1.547085 0,-0.730693 -0.003,-0.748916 -0.151119,-0.905082 -0.08311,-0.08766 -0.22127,-0.331205 -0.30702,-0.541215 -0.08575,-0.21001 -0.174819,-0.38183 -0.197939,-0.38183 -0.02314,0 -0.05881,-0.07638 -0.07931,-0.169741 -0.02049,-0.09336 -0.12223,-0.271424 -0.226063,-0.395699 -0.103828,-0.124274 -0.24461,-0.397903 -0.312848,-0.608067 -0.06824,-0.21016 -0.181631,-0.471203 -0.251982,-0.580099 C 10.08742,36.262031 9.9719924,35.994745 9.9012612,35.776961 9.8305349,35.559174 9.739367,35.303304 9.6986686,35.208359 c -0.040684,-0.09494 -0.075679,-0.22222 -0.077743,-0.282839 -0.002,-0.06062 -0.018542,-0.316713 -0.036585,-0.5691 l -0.032837,-0.458889 0.2684907,-0.403772 c 0.1476699,-0.222074 0.2861238,-0.403771 0.3076798,-0.403771 0.02154,0 0.06786,-0.06294 0.102908,-0.139856 0.06928,-0.152045 0.3204,-0.278783 0.667299,-0.336774 0.375947,-0.06285 1.434221,0.129163 1.832695,0.332516 0.07778,0.03969 0.217531,0.09038 0.310553,0.112628 0.09303,0.02225 0.18382,0.06421 0.201763,0.09324 0.01794,0.02903 0.260024,0.07975 0.537961,0.112713 0.277937,0.03296 0.594433,0.09408 0.703324,0.135818 0.108896,0.04174 0.439816,0.11932 0.735386,0.172405 0.295565,0.05309 0.562846,0.114461 0.593958,0.136392 0.03114,0.02193 0.22203,0.08549 0.424263,0.14124 0.202228,0.05575 0.463662,0.136586 0.580963,0.179632 0.117301,0.04305 0.274335,0.07827 0.348965,0.07827 0.07463,0 0.207756,0.03869 0.295836,0.08598 0.08808,0.04729 0.223785,0.112021 0.301566,0.143848 0.216274,0.0885 0.330158,0.164498 0.834846,0.55713 0.256418,0.199486 0.466214,0.382964 0.466214,0.407733 0,0.02477 0.120914,0.114126 0.268698,0.198576 0.430867,0.246216 0.430822,0.246152 0.285572,0.400766 -0.153622,0.163518 -0.397523,0.279891 -0.667405,0.318425 -0.576494,0.08232 -1.294529,0.402591 -1.478277,0.659367 -0.136006,0.190057 -0.330912,0.947649 -0.378265,1.470302 -0.02117,0.233594 -0.03848,1.135368 -0.03848,2.003939 0,1.213117 0.01639,1.58468 0.07071,1.602758 0.03889,0.01294 0.07071,0.0606 0.07071,0.105912 0,0.04528 0.09546,0.180756 0.212129,0.300998 0.116672,0.120241 0.313952,0.336683 0.438401,0.480984 0.124449,0.144301 0.277182,0.293106 0.339408,0.330675 0.06737,0.04068 0.467839,0.08262 0.989937,0.103683 0.853264,0.03444 1.615395,0.118692 1.682767,0.186059 0.04845,0.04848 -0.102695,0.310274 -0.284113,0.49213 -0.08633,0.08654 -0.379068,0.290752 -0.650531,0.453816 -0.271463,0.163058 -0.659029,0.453965 -0.861259,0.646457 -0.20223,0.192486 -0.444057,0.388466 -0.537395,0.435502 -0.09334,0.04703 -0.606607,0.229352 -1.140599,0.405145 -0.533994,0.175799 -1.034392,0.369575 -1.111999,0.430615 -0.0776,0.06105 -0.200723,0.111865 -0.273594,0.112934 -0.07288,10e-4 -0.348873,0.08043 -0.613325,0.176369 -0.264453,0.09594 -0.633557,0.198199 -0.820236,0.227247 -0.186669,0.02904 -0.457369,0.08969 -0.601551,0.13475 -0.144181,0.04508 -0.329551,0.08194 -0.411937,0.08194 -0.08238,0 -0.244426,0.03988 -0.360099,0.08864 -0.136869,0.05769 -0.526365,0.106656 -1.115396,0.140238 -0.497798,0.02839 -1.04509,0.06211 -1.21621,0.07496 -0.171116,0.01284 -0.376662,0.004 -0.45677,-0.01954 z"
         id="path81" />
      <path
         style="fill:#483e37;stroke-width:0.056568"
         d="m 65.536656,44.999711 c -0.248904,-0.140203 -0.495818,-0.255321 -0.548702,-0.255826 -0.05289,-4.5e-4 -0.205621,-0.07468 -0.339407,-0.164843 -0.438656,-0.295599 -1.598019,-0.630193 -2.760521,-0.796686 -0.23334,-0.03344 -0.6279,-0.09836 -0.876804,-0.144301 -0.615259,-0.113579 -0.751449,-0.106422 -1.249821,0.06568 -0.525881,0.181607 -0.941217,0.164144 -1.48736,-0.06253 -0.198734,-0.08249 -0.542384,-0.171415 -0.763664,-0.197625 -0.221285,-0.02619 -0.515131,-0.08872 -0.653,-0.138908 -0.137864,-0.05019 -0.395879,-0.128883 -0.573361,-0.174874 -0.177483,-0.04598 -0.497428,-0.169866 -0.710989,-0.275283 -1.047858,-0.517235 -1.622223,-0.704024 -2.368165,-0.770152 -0.642259,-0.05694 -1.606215,-0.291616 -1.871641,-0.455659 -0.09799,-0.06056 -0.228842,-0.110106 -0.290794,-0.110106 -0.150317,0 -0.676031,-0.284594 -1.093729,-0.592084 -0.348381,-0.256465 -0.7026,-0.388652 -1.278264,-0.477036 -0.181724,-0.02789 -0.737695,-0.15823 -1.235492,-0.289627 -0.497797,-0.131396 -1.045092,-0.260134 -1.21621,-0.286088 -0.754481,-0.114429 -1.317831,-0.165433 -1.84139,-0.166717 -0.309509,-5e-4 -0.677293,-0.02819 -0.817299,-0.06094 -0.15112,-0.03533 -1.438305,-0.07146 -3.167799,-0.08884 -4.268821,-0.04293 -4.201459,-0.04328 -6.533587,0.03843 -1.182268,0.04143 -2.493227,0.07483 -2.913244,0.07419 -1.000844,-0.0015 -3.014327,-0.115328 -3.337503,-0.188644 -0.140006,-0.03174 -0.827305,-0.07979 -1.527332,-0.106736 -0.91881,-0.03539 -1.34357,-0.07418 -1.527332,-0.139568 -0.140005,-0.04983 -0.358252,-0.09094 -0.484992,-0.0914 -0.478951,-0.0015 -2.356762,-0.278222 -2.449153,-0.360638 -0.05073,-0.04523 -0.295879,-0.181672 -0.544778,-0.303142 -0.496043,-0.242087 -0.65206,-0.379506 -1.202467,-1.059124 -0.503113,-0.621222 -0.557226,-0.758876 -0.419077,-1.066076 0.05892,-0.131022 0.174392,-0.300088 0.256602,-0.375708 l 0.149474,-0.137484 0.219461,0.123345 c 0.120704,0.06784 0.271664,0.12334 0.335466,0.12334 0.0638,0 0.376274,0.127278 0.694381,0.28284 0.318107,0.155562 0.612453,0.28284 0.654101,0.28284 0.04165,0 0.07573,0.02449 0.07573,0.05438 0,0.02989 0.132048,0.09359 0.293441,0.141517 0.161393,0.04793 0.35077,0.141003 0.420839,0.206826 0.210779,0.198019 0.820772,0.33185 1.774706,0.389377 1.331591,0.0803 1.527332,0.07521 1.527332,-0.03968 0,-0.05286 -0.127278,-0.215603 -0.282839,-0.361653 -0.271897,-0.255266 -0.28284,-0.277392 -0.28284,-0.571878 0,-0.321629 0.247892,-1.098792 0.460394,-1.443369 0.108531,-0.175985 0.188845,-0.222626 1.15179,-0.668884 0.155561,-0.07209 0.435572,-0.159561 0.622246,-0.194378 0.186674,-0.03482 0.518414,-0.103593 0.737199,-0.152837 0.385257,-0.08672 0.405155,-0.08578 0.631428,0.02965 0.128499,0.06556 0.406634,0.184309 0.618078,0.263895 0.211443,0.07959 0.423684,0.179497 0.471645,0.222019 0.04796,0.04252 0.189026,0.119385 0.313475,0.170802 0.124449,0.05142 0.28991,0.152869 0.367691,0.225448 0.07778,0.07258 0.228033,0.175711 0.333895,0.229185 0.10586,0.05347 0.254042,0.170395 0.329293,0.259824 0.09718,0.115497 0.262652,0.201078 0.571191,0.295423 0.421414,0.128863 0.492591,0.132691 2.385964,0.128468 1.912427,-0.0045 1.95159,-0.0066 1.95159,-0.117494 0,-0.112757 -0.06315,-0.152265 -0.786374,-0.492002 -0.235516,-0.110633 -0.29163,-0.169237 -0.372671,-0.389208 -0.05248,-0.142431 -0.112068,-0.493667 -0.13243,-0.780526 -0.03471,-0.488928 -0.02773,-0.539971 0.111445,-0.815824 0.08166,-0.161845 0.221471,-0.377881 0.3107,-0.480079 0.08923,-0.102196 0.162232,-0.219164 0.162232,-0.259929 0,-0.04076 0.05091,-0.12019 0.113136,-0.176503 0.06222,-0.05631 0.113135,-0.136624 0.113135,-0.17847 0,-0.04185 0.02338,-0.07608 0.05195,-0.07608 0.02857,0 0.109214,-0.09546 0.179199,-0.21213 0.187554,-0.312671 1.05466,-1.145499 1.192645,-1.145499 0.03592,0 0.169369,-0.06043 0.296551,-0.134287 0.127183,-0.07386 0.371247,-0.175682 0.542365,-0.226277 0.171118,-0.0506 0.4384,-0.167558 0.593962,-0.259917 0.980423,-0.582093 1.760791,-0.745365 2.547809,-0.533065 0.185433,0.05002 0.407545,0.100481 0.49358,0.112133 0.08604,0.01165 0.226043,0.0561 0.311124,0.09878 0.08508,0.04268 0.280736,0.108425 0.43479,0.146107 0.154052,0.03768 0.338751,0.127172 0.410445,0.198864 0.07169,0.07169 0.352936,0.213067 0.624989,0.314166 0.272052,0.1011 0.609191,0.255151 0.749196,0.342336 0.140005,0.08719 0.39456,0.220487 0.565678,0.296228 0.171118,0.07574 0.35831,0.190852 0.415983,0.255806 0.05767,0.06495 0.18282,0.135219 0.278105,0.156147 0.09529,0.02093 0.223969,0.08531 0.285966,0.143068 0.062,0.05776 0.242315,0.147184 0.40071,0.198723 0.158393,0.05154 0.43499,0.190731 0.614658,0.309316 0.17967,0.118584 0.383313,0.233285 0.452543,0.25489 0.116348,0.03631 0.287652,0.164404 0.672669,0.502996 0.08295,0.07295 0.203866,0.149471 0.268697,0.170048 0.06483,0.02058 0.117875,0.07001 0.117875,0.109861 0,0.03985 0.105843,0.120177 0.235206,0.178511 0.129363,0.05833 0.336772,0.179637 0.460907,0.269561 0.189745,0.137449 0.264924,0.159077 0.471894,0.135748 0.135405,-0.01526 0.24619,-0.0054 0.24619,0.02187 0,0.02729 0.137765,0.04962 0.306148,0.04962 0.16838,0 0.505666,0.03818 0.749523,0.08484 0.243857,0.04666 0.541282,0.08485 0.660943,0.08485 0.228065,1e-5 0.59068,0.09025 1.253199,0.311868 0.217787,0.07285 0.663258,0.162679 0.989937,0.199618 0.720606,0.08148 1.615118,0.302158 1.816598,0.448158 0.08132,0.05892 0.246777,0.124039 0.367693,0.144701 0.120911,0.02066 0.349158,0.08413 0.507214,0.141041 0.15805,0.05691 0.539885,0.171406 0.848515,0.254435 0.308634,0.08303 0.642618,0.197954 0.742198,0.255386 0.09957,0.05743 0.392315,0.171745 0.65053,0.254026 0.258215,0.08228 0.736765,0.272449 1.063442,0.422588 0.326682,0.150144 0.733972,0.317091 0.905087,0.371004 0.171115,0.05391 0.349308,0.120571 0.395974,0.148135 0.289727,0.171135 1.011638,0.481034 1.477849,0.634407 0.299458,0.09851 0.579469,0.207585 0.622241,0.242386 0.04278,0.03479 0.236869,0.107551 0.431325,0.161659 0.194451,0.05412 0.353546,0.121576 0.353546,0.149909 0,0.05645 0.66394,0.386003 0.777809,0.386073 0.03888,2.5e-5 0.07071,0.01944 0.07071,0.04318 0,0.02374 0.04818,0.06828 0.107086,0.09899 0.0589,0.03074 0.283005,0.162229 0.498013,0.292267 0.215007,0.130037 0.522452,0.286403 0.683212,0.347483 0.160754,0.06109 0.388482,0.186619 0.506064,0.278967 0.117582,0.09235 0.340741,0.223594 0.495918,0.291666 0.155172,0.06807 0.333359,0.170291 0.395974,0.227163 0.06261,0.05688 0.2093,0.13397 0.325972,0.17133 0.116668,0.03734 0.212129,0.08823 0.212129,0.113064 0,0.02484 0.210009,0.151823 0.466685,0.282215 0.256676,0.130392 0.555779,0.298304 0.66467,0.373138 0.739159,0.507974 0.789953,0.554515 0.887249,0.812909 0.140542,0.373234 0.432764,0.855382 0.635236,1.048099 0.096,0.09138 0.174549,0.199569 0.174549,0.240412 0,0.04083 0.02239,0.07427 0.04973,0.07427 0.02734,0 0.08287,0.08007 0.12341,0.177933 0.06748,0.162908 0.05977,0.203682 -0.09129,0.482928 -0.127568,0.235834 -0.232331,0.343006 -0.461957,0.472598 -0.163334,0.09218 -0.347654,0.167602 -0.409594,0.167602 -0.06194,0 -0.19597,0.05081 -0.297838,0.112924 -0.101869,0.06211 -0.265987,0.113019 -0.364717,0.113139 -0.108156,1.15e-4 -0.245555,0.05579 -0.345684,0.140038 -0.27144,0.228402 -0.45545,0.271484 -1.228416,0.287608 -0.40446,0.0084 -0.951752,0.03084 -1.21621,0.04978 l -0.480824,0.03444 z M 64.96055,43.039019 c 0.23412,-0.120281 0.436638,-0.355955 0.496309,-0.57755 0.05378,-0.199734 0.04213,-0.258095 -0.115428,-0.57814 -0.147321,-0.299243 -0.216387,-0.375897 -0.433304,-0.480909 -0.210809,-0.102049 -0.32056,-0.119252 -0.599476,-0.09396 -0.299353,0.02714 -0.368655,0.05755 -0.562441,0.24678 -0.307965,0.300717 -0.374048,0.549841 -0.248099,0.935254 0.104837,0.320795 0.160824,0.383494 0.34369,0.384868 0.06342,4.5e-4 0.215172,0.05178 0.337222,0.113999 0.245661,0.125244 0.59162,0.147225 0.781527,0.04968 z"
         id="path83" />
      <path
         style="fill:#483e37;stroke-width:0.056568"
         d="m 45.935893,47.174986 c -0.233342,-0.02689 -0.775567,-0.07998 -1.204946,-0.117957 -0.700548,-0.06196 -0.807187,-0.08586 -1.038859,-0.232775 -0.239676,-0.151998 -0.255546,-0.176698 -0.221507,-0.344705 0.02017,-0.09953 0.05092,-0.333704 0.06835,-0.520373 0.03552,-0.380575 0.255216,-1.025858 0.421039,-1.236667 0.06005,-0.07634 0.109187,-0.157616 0.109187,-0.180602 0,-0.02299 0.0891,-0.176013 0.197987,-0.340071 0.108894,-0.164054 0.197988,-0.322524 0.197988,-0.352162 0,-0.07763 0.577849,-0.627959 0.861692,-0.820656 0.252171,-0.171195 1.14788,-0.605334 1.248917,-0.605334 0.03209,0 0.09853,-0.03494 0.147652,-0.07759 0.203625,-0.176898 1.41497,-0.438062 1.543818,-0.332845 0.04005,0.03269 0.396772,0.226363 0.792714,0.43035 0.61137,0.314972 1.150251,0.68725 1.585559,1.095359 0.272955,0.255901 0.748704,0.282466 1.613309,0.09008 0.485503,-0.108031 0.549638,-0.08699 1.02134,0.335033 0.165847,0.14838 0.328224,0.269781 0.360837,0.269781 0.03261,0 0.153353,0.08273 0.268312,0.183845 0.11496,0.101114 0.323924,0.250728 0.464366,0.332475 0.222895,0.129737 0.266169,0.187253 0.340475,0.452541 0.07928,0.283039 0.07816,0.310028 -0.01623,0.392905 -0.05575,0.04893 -0.210837,0.123689 -0.344648,0.166102 -0.133812,0.04243 -0.308627,0.121691 -0.388479,0.176168 -0.267049,0.182206 -0.99493,0.437732 -1.360177,0.477496 -0.198758,0.02164 -0.514111,0.108306 -0.700784,0.192597 -0.359511,0.162334 -0.711862,0.250593 -1.357629,0.340081 -0.217786,0.03019 -0.524381,0.09088 -0.68132,0.134881 -0.348389,0.09769 -3.283595,0.166442 -3.92896,0.09204 z"
         id="path85" />
      <path
         style="fill:#483e37;stroke-width:2;stroke-miterlimit:4;stroke-dasharray:none"
         d="M 34.292187,46.832231 C 34.02375,46.713064 33.926004,46.611895 33.66505,46.183135 33.508013,45.92512 33.366498,45.416532 33.36447,45.102899 c -0.0013,-0.202133 0.266236,-0.718897 0.49989,-0.965552 0.249462,-0.263343 0.255061,-0.264447 1.719617,-0.340531 0.971163,-0.05045 1.547663,-0.04133 2.432418,0.03848 0.67323,0.06074 2.484788,0.352446 3.394071,0.546533 0.233342,0.04978 0.484555,0.101768 0.558252,0.115468 0.121656,0.02264 0.108632,0.04093 -0.14142,0.198754 -0.151476,0.09562 -0.381068,0.270754 -0.510203,0.389196 -0.258427,0.237024 -0.636002,0.449652 -0.798471,0.449652 -0.05742,0 -0.191555,0.0643 -0.298077,0.142892 -0.106524,0.07859 -0.372389,0.194651 -0.590811,0.25791 -0.218422,0.06326 -0.664416,0.200809 -0.991095,0.305661 -0.768597,0.24669 -1.101772,0.311663 -1.600826,0.312188 -0.618815,5e-4 -1.274063,0.09065 -1.826918,0.250928 -0.584148,0.169351 -0.598716,0.169791 -0.91871,0.02774 z"
         id="path87" />
      <path
         style="fill:#483e37;stroke-width:0.0199998"
         d="m 60.619087,50.179833 c -0.03299,-0.0045 -0.0825,-0.01314 -0.109995,-0.01934 l -0.05,-0.01125 0.05088,-0.02679 c 0.02799,-0.01469 0.203487,-0.05893 0.389997,-0.09824 0.554359,-0.116863 0.606003,-0.131162 0.919106,-0.254437 0.376142,-0.148094 0.443974,-0.179597 0.629858,-0.292516 0.08257,-0.05016 0.32113,-0.175583 0.53013,-0.278716 0.208995,-0.103138 0.420494,-0.209365 0.469993,-0.236059 0.04948,-0.02669 0.283495,-0.142492 0.519994,-0.257321 0.236494,-0.114828 0.501996,-0.25736 0.589995,-0.316741 0.08799,-0.05938 0.213993,-0.144706 0.279996,-0.189612 0.066,-0.04488 0.245995,-0.151219 0.399992,-0.236249 0.153998,-0.08503 0.309559,-0.180537 0.345695,-0.212234 0.03614,-0.03169 0.08031,-0.05764 0.09818,-0.05764 0.06,0 0.253936,-0.165882 0.566174,-0.484263 l 0.310054,-0.316161 0.108441,0.0045 c 0.07143,0.003 0.111225,-0.0035 0.116603,-0.01979 0.0045,-0.01349 0.03503,-0.02449 0.06788,-0.02449 h 0.05971 l -0.100445,0.114998 c -0.129402,0.148155 -0.432798,0.416201 -0.614639,0.543025 -0.07829,0.05461 -0.14748,0.112674 -0.153763,0.129042 -0.0063,0.01634 -0.06653,0.06718 -0.13389,0.112924 -0.06736,0.04573 -0.127359,0.09591 -0.133336,0.111485 -0.0059,0.01559 -0.04598,0.04808 -0.08894,0.0722 -0.04293,0.02414 -0.09158,0.06449 -0.108086,0.08968 -0.01649,0.02519 -0.05918,0.06071 -0.09482,0.07892 -0.03564,0.01824 -0.132312,0.08713 -0.214808,0.153157 -0.0825,0.06602 -0.188333,0.13726 -0.235184,0.158311 -0.04683,0.02104 -0.163849,0.0838 -0.259995,0.139433 -0.09615,0.05564 -0.318815,0.177523 -0.494813,0.27085 -0.175994,0.09333 -0.337993,0.185874 -0.359994,0.205661 -0.02199,0.01979 -0.120996,0.07885 -0.219995,0.131262 -0.099,0.05241 -0.210315,0.117647 -0.24736,0.144976 -0.03704,0.02734 -0.113064,0.06705 -0.168921,0.08827 -0.05586,0.02124 -0.160545,0.07285 -0.232635,0.114708 -0.237059,0.137669 -0.332765,0.178158 -0.502451,0.212539 -0.09218,0.01869 -0.190327,0.0506 -0.218111,0.07093 -0.02779,0.02034 -0.125934,0.05563 -0.218121,0.07844 -0.09219,0.02279 -0.223934,0.06266 -0.292766,0.08857 -0.06883,0.02589 -0.236404,0.07133 -0.372379,0.100939 -0.135974,0.02959 -0.274458,0.06508 -0.307744,0.07884 -0.0633,0.02614 -0.415986,0.05191 -0.519479,0.03794 z"
         id="path89" />
      <path
         style="fill:#483e37;stroke-width:0.0199998"
         d="m 66.652722,46.835449 c -0.01934,-0.0123 0.001,-0.04123 0.07716,-0.10969 0.0569,-0.05116 0.110725,-0.09302 0.119601,-0.09302 0.0089,0 0.0568,-0.05625 0.106492,-0.124999 0.152508,-0.210995 0.273393,-0.349853 0.515595,-0.592244 0.127903,-0.128008 0.303077,-0.329496 0.389271,-0.447743 l 0.156717,-0.214998 h 0.113219 c 0.06227,0 0.140617,-0.0055 0.174099,-0.0122 l 0.06088,-0.01219 -0.04873,0.09626 c -0.02679,0.05294 -0.06658,0.115253 -0.08838,0.138464 -0.02179,0.02324 -0.03963,0.05543 -0.03963,0.0716 0,0.01619 -0.02694,0.04533 -0.05986,0.06476 -0.03294,0.01944 -0.06968,0.05371 -0.08169,0.07615 -0.02599,0.04858 -0.246045,0.277107 -0.266827,0.277107 -0.02169,0 -0.731612,0.720952 -0.731612,0.742963 0,0.03129 -0.164483,0.09612 -0.244996,0.09659 -0.05314,3e-4 -0.075,0.0092 -0.075,0.03044 0,0.03289 -0.03519,0.03878 -0.07629,0.01269 z"
         id="path91" />
      <path
         style="fill:#483e37;stroke-width:0.0199998"
         d="m 69.32373,49.150712 c -0.03009,-0.03948 -0.05475,-0.07922 -0.05475,-0.08831 0,-0.0091 -0.01215,-0.03074 -0.02694,-0.04813 -0.01479,-0.01739 -0.05158,-0.09457 -0.08171,-0.171575 -0.03014,-0.077 -0.07521,-0.166998 -0.10016,-0.199994 -0.06944,-0.09183 -0.251197,-0.421599 -0.251197,-0.455755 0,-0.01664 -0.03918,-0.08292 -0.08701,-0.147255 -0.04788,-0.06434 -0.111739,-0.15978 -0.141962,-0.212088 -0.03024,-0.0523 -0.06647,-0.101804 -0.08056,-0.109996 -0.01409,-0.0082 -0.04243,-0.04238 -0.06303,-0.076 -0.05753,-0.09393 -0.253751,-0.324888 -0.287418,-0.338292 -0.01649,-0.0065 -0.0795,-0.076 -0.139998,-0.154287 -0.0605,-0.07828 -0.174934,-0.219731 -0.254296,-0.314322 -0.07936,-0.09459 -0.144612,-0.178733 -0.144996,-0.186984 -4.5e-4,-0.0082 0.04038,-0.01499 0.09061,-0.01499 0.05022,0 0.107926,-0.0089 0.128228,-0.01974 0.03154,-0.01689 0.04563,-0.0045 0.09676,0.08628 0.05878,0.104152 0.130402,0.189827 0.416316,0.498002 0.140393,0.151323 0.274458,0.341721 0.254601,0.361583 -0.0106,0.0106 0.128038,0.262503 0.256101,0.465276 0.04218,0.06676 0.07667,0.135984 0.07667,0.153817 0,0.01784 0.008,0.03739 0.01779,0.04343 0.0098,0.006 0.02384,0.03584 0.03129,0.06618 0.0074,0.03034 0.07853,0.176684 0.158001,0.325183 0.07947,0.1485 0.156231,0.309844 0.170575,0.358549 0.01434,0.04868 0.03948,0.109011 0.05586,0.134016 0.01639,0.02499 0.02669,0.06161 0.02289,0.08134 -0.0055,0.02884 -0.01759,0.02184 -0.06166,-0.03589 z"
         id="path93" />
      <path
         style="fill:#483e37;stroke-width:0.0199998"
         d="m 71.833954,47.602912 c -0.03574,-0.01554 -0.065,-0.03768 -0.065,-0.04923 0,-0.01154 -0.01269,-0.02094 -0.02819,-0.02094 -0.01549,0 -0.09425,-0.05521 -0.174994,-0.122686 -0.08075,-0.06748 -0.169311,-0.132391 -0.196815,-0.144251 -0.07148,-0.03084 -0.314212,-0.194456 -0.419994,-0.28312 -0.04948,-0.04148 -0.128683,-0.09206 -0.175963,-0.112389 -0.04728,-0.02034 -0.125399,-0.06408 -0.1736,-0.09725 -0.04818,-0.03314 -0.09951,-0.06033 -0.114033,-0.06037 -0.01449,-3.5e-5 -0.0579,-0.01929 -0.0964,-0.04278 -0.08649,-0.05274 -0.378846,-0.177158 -0.416286,-0.177158 -0.02354,0 -0.169686,-0.06275 -0.709731,-0.304766 l -0.09603,-0.04303 0.05603,-0.02849 c 0.03084,-0.01564 0.0802,-0.05103 0.109741,-0.07861 l 0.05371,-0.05013 0.100934,0.0621 c 0.111444,0.06857 0.240612,0.124899 0.511637,0.223109 0.226177,0.08196 0.402036,0.169491 0.457283,0.227602 0.03914,0.04118 0.339282,0.244586 0.516285,0.349913 0.04048,0.02409 0.07647,0.0502 0.08,0.05803 0.01904,0.04223 0.366806,0.307324 0.543479,0.414236 0.03633,0.02199 0.09519,0.07332 0.130742,0.114044 0.03553,0.04073 0.07984,0.0792 0.09841,0.0855 0.03589,0.01219 0.116703,0.111 0.0897,0.10967 -0.0087,-4.5e-4 -0.04518,-0.01349 -0.08093,-0.02904 z"
         id="path95" />
      <path
         style="fill:#483e37;stroke-width:0.0199998"
         d="m 72.75394,46.707806 c -0.03574,-0.01144 -0.065,-0.02854 -0.065,-0.03798 0,-0.0094 -0.01134,-0.01709 -0.02519,-0.01709 -0.01384,0 -0.104532,-0.054 -0.201528,-0.120002 -0.097,-0.066 -0.189148,-0.119996 -0.204776,-0.119996 -0.03554,0 -0.384404,-0.191407 -0.438512,-0.240597 -0.02199,-0.01999 -0.0985,-0.05831 -0.170001,-0.08513 -0.0715,-0.02684 -0.165862,-0.06801 -0.209699,-0.09152 -0.04383,-0.02349 -0.09221,-0.04273 -0.107497,-0.04273 -0.01529,0 -0.07842,-0.02154 -0.140293,-0.04793 -0.136464,-0.05812 -0.370449,-0.132076 -0.417915,-0.132091 -0.01899,-5e-6 -0.193301,-0.05315 -0.387287,-0.118092 -0.193986,-0.06494 -0.369485,-0.121311 -0.389991,-0.125264 -0.02989,-0.0057 -0.02284,-0.01614 0.03563,-0.05226 0.04013,-0.02479 0.0873,-0.067 0.104857,-0.0938 l 0.03194,-0.04873 0.145136,0.06814 c 0.07983,0.03749 0.28426,0.104902 0.454301,0.149829 0.300622,0.07943 0.54083,0.169046 0.54083,0.201783 0,0.0089 0.132751,0.08573 0.294995,0.170801 0.162248,0.08507 0.299493,0.159825 0.304995,0.166132 0.04148,0.04758 0.593199,0.38146 0.630334,0.38146 0.0083,0 0.05424,0.03599 0.101973,0.08 0.04773,0.04398 0.09893,0.08 0.113754,0.08 0.01484,0 0.04808,0.02249 0.07393,0.05 0.05136,0.05466 0.03469,0.06024 -0.07499,0.02509 z"
         id="path97" />
      <path
         style="fill:#c8b7b7;stroke-width:0.0799994"
         d="m 62.681353,47.191839 c -0.03589,-0.03703 -0.287908,-0.09117 -0.559992,-0.120301 -0.27209,-0.02914 -0.8367,-0.09157 -1.254695,-0.138743 -0.417995,-0.04718 -1.353984,-0.103153 -2.079974,-0.12439 -1.511165,-0.04418 -2.409899,-0.144546 -3.023559,-0.337567 C 55.373419,46.348257 55.316609,46.299312 55.134151,45.928933 55.023834,45.704994 54.883642,45.35919 54.822613,45.160476 54.741993,44.897983 54.639878,44.757585 54.4492,44.64707 54.197823,44.501379 54.025944,44.373721 53.36498,43.841797 52.821963,43.40479 52.754964,43.385213 52.245062,43.51456 c -0.794725,0.201598 -1.247891,0.178173 -1.53827,-0.07953 -0.583191,-0.517555 -0.879558,-0.723926 -1.604614,-1.117346 l -0.835356,-0.45327 -0.573065,0.07821 c -0.56283,0.07681 -0.767737,0.152468 -1.92334,0.710146 -0.591306,0.285359 -1.383548,0.92083 -1.383548,1.109768 0,0.05826 -0.027,0.117917 -0.06,0.132587 -0.033,0.01464 -0.139972,0.17066 -0.237716,0.346658 -0.117347,0.2113 -0.226048,0.313143 -0.319996,0.299819 -0.07825,-0.0111 -0.54809,-0.05579 -1.044081,-0.09931 -0.495989,-0.04353 -1.053983,-0.113999 -1.239985,-0.156621 -0.92415,-0.211779 -2.613882,-0.478746 -3.593207,-0.567704 -0.871855,-0.07919 -1.398877,-0.07927 -2.585707,-3.95e-4 -1.151691,0.07654 -1.648524,0.07779 -2.18491,0.0054 -1.024647,-0.138169 -2.817066,-0.464142 -3.774215,-0.686386 -0.461995,-0.107272 -0.921748,-0.194996 -1.021674,-0.194946 -0.09993,4e-5 -0.441923,-0.0691 -0.759991,-0.153672 -0.318069,-0.08458 -1.155143,-0.263203 -1.860163,-0.396949 -1.280847,-0.242986 -1.282204,-0.243061 -1.71998,-0.0997 -0.240966,0.07891 -0.654119,0.242486 -0.918115,0.363502 -0.263997,0.121016 -0.623993,0.285304 -0.799991,0.365081 -0.175997,0.07978 -0.539916,0.212949 -0.808708,0.29593 -0.431667,0.133266 -0.548391,0.139493 -0.999988,0.05332 -0.281201,-0.05366 -0.868749,-0.09978 -1.30566,-0.102493 l -0.794386,-0.005 -0.485599,-0.505979 c -0.267079,-0.278287 -0.534059,-0.597382 -0.593288,-0.709102 -0.146441,-0.276212 -0.161864,-3.25566 -0.02063,-3.984853 0.168357,-0.869217 0.323158,-1.134884 0.775005,-1.330059 0.518107,-0.223799 0.925933,-0.349923 1.131481,-0.349923 0.126992,0 0.156918,0.03789 0.125324,0.158716 -0.07224,0.276242 0.04378,0.532073 0.476147,1.049922 0.632975,0.758117 0.754894,0.862634 1.389033,1.190786 0.527296,0.272864 0.696145,0.315472 1.727826,0.436007 0.628881,0.07347 1.382568,0.18555 1.67486,0.249059 0.292292,0.06351 0.904285,0.116198 1.359983,0.117083 0.455699,9.99e-4 1.062541,0.03703 1.348537,0.08029 1.272083,0.192477 3.422253,0.23212 6.799917,0.125384 2.470931,-0.07808 2.367721,-0.0778 6.159925,-0.01684 4.20194,0.06753 5.6478,0.184165 7.079913,0.571097 0.439995,0.118877 1.054941,0.262114 1.36655,0.318296 0.589681,0.106327 0.943557,0.254776 1.357821,0.569608 0.134421,0.102159 0.422417,0.261774 0.639992,0.354696 0.217575,0.09293 0.507735,0.219391 0.644798,0.28103 0.353971,0.159191 1.538088,0.433579 1.87396,0.434244 0.441039,9.99e-4 1.159866,0.215312 1.910387,0.569903 0.768258,0.362967 2.070083,0.790643 2.406681,0.790643 0.121351,0 0.459738,0.09 0.751979,0.199999 0.644258,0.242496 0.989278,0.250593 1.595741,0.03744 0.411687,-0.144697 0.516865,-0.152318 0.957215,-0.06935 0.27209,0.05126 0.584703,0.102658 0.694703,0.114213 1.322147,0.138854 2.256822,0.420389 3.601005,1.084659 l 0.989552,0.489026 0.724685,-0.09784 c 0.398578,-0.05381 0.809776,-0.08442 0.913783,-0.068 0.180527,0.02849 0.17206,0.04798 -0.186834,0.42983 -0.20676,0.22 -0.480494,0.530724 -0.608297,0.690499 -0.272294,0.340426 -0.613955,0.519673 -1.113947,0.584427 -0.197999,0.02564 -0.629994,0.08377 -0.959989,0.129167 -0.898095,0.123555 -2.111176,0.182381 -2.185266,0.105972 z"
         id="path99" />
      <path
         style="fill:#c8b7b7;stroke-width:0.0799994"
         d="m 54.226749,46.164367 -0.279997,-0.105232 0.319996,-0.130697 c 0.175998,-0.07189 0.377746,-0.162819 0.448329,-0.202078 0.100159,-0.0557 0.157237,-0.01075 0.259997,0.204732 0.07241,0.151858 0.131664,0.292881 0.131664,0.313388 0,0.07677 -0.610423,0.02119 -0.879989,-0.08011 z"
         id="path101" />
      <path
         style="fill:#a3a0b4;stroke-width:0.0799994;fill-opacity:1"
         d="m 67.803249,46.055217 c 0.298828,-0.3084 0.597327,-0.619828 0.663325,-0.692059 0.206826,-0.226358 0.719332,-0.521373 0.905741,-0.521373 0.09826,0 0.249659,-0.04853 0.336444,-0.107861 0.08679,-0.05932 0.272419,-0.129947 0.412517,-0.156941 l 0.254716,-0.04908 -0.149499,0.336943 c -0.175933,0.396534 -0.853158,1.050088 -1.268014,1.223702 -0.384884,0.161075 -1.109054,0.397918 -1.436646,0.469874 -0.254421,0.05588 -0.246364,0.04148 0.281416,-0.5032 z"
         id="path103" />
      <path
         style="fill:#a3a0b4;stroke-width:2;stroke-miterlimit:4;stroke-dasharray:none;fill-opacity:1"
         d="m 62.194326,47.037952 c -0.280011,-0.05609 -1.655661,-0.174119 -3.057001,-0.262283 -2.665581,-0.167702 -3.492022,-0.301913 -3.77197,-0.612556 -0.09234,-0.102474 -0.267215,-0.440871 -0.388599,-0.751989 -0.180491,-0.462627 -0.383046,-0.694083 -1.111843,-1.270483 l -0.891145,-0.704799 -0.988864,0.06878 -0.988863,0.06878 -0.481901,-0.393549 c -0.265046,-0.216447 -0.863734,-0.609937 -1.330418,-0.874425 -0.791734,-0.448697 -0.889124,-0.476166 -1.455294,-0.410418 -0.661044,0.07676 -2.090809,0.687651 -2.703901,1.155275 -0.211951,0.161664 -0.568718,0.549147 -0.792814,0.86107 l -0.407446,0.567139 -0.855764,-0.07171 c -0.470669,-0.03943 -1.568518,-0.207645 -2.439663,-0.373788 -1.414096,-0.269695 -1.88712,-0.304965 -4.412292,-0.329011 -1.555616,-0.01479 -3.082948,-0.05984 -3.394071,-0.100074 -0.573115,-0.07411 -3.965423,-0.729383 -6.448735,-1.245663 -0.746696,-0.155237 -1.546269,-0.282785 -1.776829,-0.28344 -0.245257,-5e-4 -0.90248,0.204912 -1.5839,0.495504 -1.545642,0.659151 -1.841161,0.730887 -2.579575,0.626185 -0.341862,-0.04848 -0.933577,-0.09185 -1.314922,-0.0964 l -0.693355,-0.0082 -0.535425,-0.62672 -0.535424,-0.62672 2.77e-4,-1.833978 c 2.77e-4,-1.864782 0.120037,-2.681719 0.446744,-3.04782 0.140633,-0.157591 1.23996,-0.6529 1.449094,-0.6529 0.02878,0 0.05232,0.122705 0.05232,0.272679 0,0.274479 0.598074,1.106925 1.201862,1.672845 0.533656,0.500186 1.258935,0.744112 2.929351,0.985204 3.010106,0.434443 4.613502,0.499711 12.726007,0.518019 8.49398,0.01919 9.038777,0.04888 11.631692,0.633927 1.156371,0.260924 1.711429,0.447763 2.191414,0.73766 0.891587,0.538486 1.892407,0.893611 3.100104,1.100022 0.577326,0.09868 1.535428,0.380366 2.186423,0.642834 0.637326,0.256955 1.784799,0.626025 2.549938,0.820156 1.318583,0.334549 1.424255,0.345025 2.025451,0.200798 0.515425,-0.123644 0.820241,-0.126508 1.626658,-0.01529 1.492233,0.205831 2.232396,0.423497 3.519428,1.034974 1.165815,0.553889 1.172093,0.555379 2.030354,0.482828 l 0.860924,-0.07278 -0.50302,0.591704 c -0.654054,0.769362 -0.949239,0.913363 -2.250304,1.097783 -1.213862,0.17206 -2.082648,0.181517 -2.834717,0.03089 z"
         id="path105" />
    </g>
  </g>
</svg>
